<svg width="33" height="33" viewBox="0 0 33 33" fill="none" xmlns="http://www.w3.org/2000/svg">
<path fill-rule="evenodd" clip-rule="evenodd" d="M2.0625 16.5C2.0625 20.3291 3.58359 24.0013 6.29115 26.7089C8.9987 29.4164 12.6709 30.9375 16.5 30.9375C20.3291 30.9375 24.0013 29.4164 26.7089 26.7089C29.4164 24.0013 30.9375 20.3291 30.9375 16.5C30.9375 12.6709 29.4164 8.9987 26.7089 6.29115C24.0013 3.58359 20.3291 2.0625 16.5 2.0625C12.6709 2.0625 8.9987 3.58359 6.29115 6.29115C3.58359 8.9987 2.0625 12.6709 2.0625 16.5V16.5ZM33 16.5C33 20.8761 31.2616 25.0729 28.1673 28.1673C25.0729 31.2616 20.8761 33 16.5 33C12.1239 33 7.92709 31.2616 4.83274 28.1673C1.73839 25.0729 0 20.8761 0 16.5C0 12.1239 1.73839 7.92709 4.83274 4.83274C7.92709 1.73839 12.1239 0 16.5 0C20.8761 0 25.0729 1.73839 28.1673 4.83274C31.2616 7.92709 33 12.1239 33 16.5V16.5ZM9.28125 15.4688C9.00775 15.4688 8.74544 15.5774 8.55205 15.7708C8.35865 15.9642 8.25 16.2265 8.25 16.5C8.25 16.7735 8.35865 17.0358 8.55205 17.2292C8.74544 17.4226 9.00775 17.5312 9.28125 17.5312H21.2293L16.8011 21.9574C16.7052 22.0533 16.6292 22.1671 16.5773 22.2924C16.5254 22.4176 16.4987 22.5519 16.4987 22.6875C16.4987 22.8231 16.5254 22.9574 16.5773 23.0826C16.6292 23.2079 16.7052 23.3217 16.8011 23.4176C16.897 23.5135 17.0108 23.5896 17.1361 23.6415C17.2614 23.6933 17.3957 23.7201 17.5312 23.7201C17.6668 23.7201 17.8011 23.6933 17.9264 23.6415C18.0517 23.5896 18.1655 23.5135 18.2614 23.4176L24.4489 17.2301C24.5449 17.1343 24.6211 17.0205 24.6731 16.8952C24.7251 16.77 24.7518 16.6356 24.7518 16.5C24.7518 16.3644 24.7251 16.23 24.6731 16.1048C24.6211 15.9795 24.5449 15.8657 24.4489 15.7699L18.2614 9.58237C18.1655 9.48649 18.0517 9.41044 17.9264 9.35855C17.8011 9.30665 17.6668 9.27995 17.5312 9.27995C17.3957 9.27995 17.2614 9.30665 17.1361 9.35855C17.0108 9.41044 16.897 9.48649 16.8011 9.58237C16.7052 9.67826 16.6292 9.79208 16.5773 9.91736C16.5254 10.0426 16.4987 10.1769 16.4987 10.3125C16.4987 10.4481 16.5254 10.5824 16.5773 10.7076C16.6292 10.8329 16.7052 10.9467 16.8011 11.0426L21.2293 15.4688H9.28125Z" fill="black"/>
</svg>
