<svg width="686" height="784" viewBox="0 0 686 784" fill="none" xmlns="http://www.w3.org/2000/svg">
<path d="M349 99C147.5 30 -38.39 27.9998 -44.3916 28C-273.629 28.0065 -62.0294 571 -36.8901 610C-22.3872 632.499 -7.36687 660.5 5.15234 675C8.69627 679.105 61.6082 747 114.608 768C137.247 776.97 169.792 769.058 204.608 764C239.425 758.942 312.724 735.945 375.109 702.5C448.538 663.134 514.024 604.5 543.109 571C580.033 528.47 593.609 513.5 621.609 451C639.917 410.132 645.609 388 641.109 338C635.714 278.061 572.884 230.246 553.109 214C514.155 182 453.5 134.784 349 99Z" fill="#E3EEFC"/>
<path d="M385.453 99.9471C180.54 30.0266 -8.49931 27.9998 -14.6026 28C-247.724 28.0066 -32.5392 578.243 -6.97399 617.764C7.77463 640.563 23.0494 668.937 35.7806 683.631C39.3846 687.79 93.1929 756.591 147.091 777.871C170.113 786.961 203.209 778.943 238.615 773.818C274.022 768.693 348.563 745.388 412.004 711.498C486.678 671.606 553.273 612.19 582.85 578.243C620.399 535.146 634.205 519.976 662.68 456.643C681.299 415.23 687.086 392.802 682.51 342.135C677.024 281.396 613.13 232.943 593.019 216.481C553.406 184.054 491.723 136.209 385.453 99.9471Z" stroke="#E3EEFC" stroke-width="3"/>
<g filter="url(#filter0_ddii_349_47)">
<rect x="270" y="528" width="114" height="113" rx="56.5" fill="#E3EEFC" fill-opacity="0.01" shape-rendering="crispEdges"/>
<rect x="272" y="530" width="110" height="109" rx="54.5" stroke="#E3EEFC" stroke-width="4" shape-rendering="crispEdges"/>
</g>
<g filter="url(#filter1_ddii_349_47)">
<path d="M72 256H-8C-19.0457 256 -28 264.954 -28 276V356C-28 367.046 -19.0457 376 -8 376H72C83.0457 376 92 367.046 92 356V276C92 264.954 83.0457 256 72 256Z" fill="#E3EEFC" fill-opacity="0.01" shape-rendering="crispEdges"/>
<path d="M72 256H-8C-19.0457 256 -28 264.954 -28 276V356C-28 367.046 -19.0457 376 -8 376H72C83.0457 376 92 367.046 92 356V276C92 264.954 83.0457 256 72 256Z" stroke="#E3EEFC" stroke-width="3" shape-rendering="crispEdges"/>
</g>
<circle cx="22" cy="635" r="40" stroke="#CFDCED" stroke-width="20"/>
<rect x="562" y="348" width="50" height="50" rx="10" fill="white" fill-opacity="0.8"/>
<rect x="94.8284" y="28.3553" width="36" height="36" rx="3" transform="rotate(-45 94.8284 28.3553)" stroke="#67B0F4" stroke-width="4"/>
<defs>
<filter id="filter0_ddii_349_47" x="258" y="516" width="138" height="137" filterUnits="userSpaceOnUse" color-interpolation-filters="sRGB">
<feFlood flood-opacity="0" result="BackgroundImageFix"/>
<feColorMatrix in="SourceAlpha" type="matrix" values="0 0 0 0 0 0 0 0 0 0 0 0 0 0 0 0 0 0 127 0" result="hardAlpha"/>
<feOffset dx="-4" dy="-4"/>
<feGaussianBlur stdDeviation="4"/>
<feComposite in2="hardAlpha" operator="out"/>
<feColorMatrix type="matrix" values="0 0 0 0 1 0 0 0 0 1 0 0 0 0 1 0 0 0 0.57 0"/>
<feBlend mode="normal" in2="BackgroundImageFix" result="effect1_dropShadow_349_47"/>
<feColorMatrix in="SourceAlpha" type="matrix" values="0 0 0 0 0 0 0 0 0 0 0 0 0 0 0 0 0 0 127 0" result="hardAlpha"/>
<feOffset dx="4" dy="4"/>
<feGaussianBlur stdDeviation="4"/>
<feComposite in2="hardAlpha" operator="out"/>
<feColorMatrix type="matrix" values="0 0 0 0 0 0 0 0 0 0 0 0 0 0 0 0 0 0 0.25 0"/>
<feBlend mode="normal" in2="effect1_dropShadow_349_47" result="effect2_dropShadow_349_47"/>
<feBlend mode="normal" in="SourceGraphic" in2="effect2_dropShadow_349_47" result="shape"/>
<feColorMatrix in="SourceAlpha" type="matrix" values="0 0 0 0 0 0 0 0 0 0 0 0 0 0 0 0 0 0 127 0" result="hardAlpha"/>
<feOffset dx="-4" dy="-4"/>
<feGaussianBlur stdDeviation="4"/>
<feComposite in2="hardAlpha" operator="arithmetic" k2="-1" k3="1"/>
<feColorMatrix type="matrix" values="0 0 0 0 1 0 0 0 0 1 0 0 0 0 1 0 0 0 0.87 0"/>
<feBlend mode="normal" in2="shape" result="effect3_innerShadow_349_47"/>
<feColorMatrix in="SourceAlpha" type="matrix" values="0 0 0 0 0 0 0 0 0 0 0 0 0 0 0 0 0 0 127 0" result="hardAlpha"/>
<feOffset dx="4" dy="4"/>
<feGaussianBlur stdDeviation="4"/>
<feComposite in2="hardAlpha" operator="arithmetic" k2="-1" k3="1"/>
<feColorMatrix type="matrix" values="0 0 0 0 0 0 0 0 0 0 0 0 0 0 0 0 0 0 0.25 0"/>
<feBlend mode="normal" in2="effect3_innerShadow_349_47" result="effect4_innerShadow_349_47"/>
</filter>
<filter id="filter1_ddii_349_47" x="-41.5" y="242.5" width="143" height="143" filterUnits="userSpaceOnUse" color-interpolation-filters="sRGB">
<feFlood flood-opacity="0" result="BackgroundImageFix"/>
<feColorMatrix in="SourceAlpha" type="matrix" values="0 0 0 0 0 0 0 0 0 0 0 0 0 0 0 0 0 0 127 0" result="hardAlpha"/>
<feOffset dx="-4" dy="-4"/>
<feGaussianBlur stdDeviation="4"/>
<feComposite in2="hardAlpha" operator="out"/>
<feColorMatrix type="matrix" values="0 0 0 0 1 0 0 0 0 1 0 0 0 0 1 0 0 0 0.56 0"/>
<feBlend mode="normal" in2="BackgroundImageFix" result="effect1_dropShadow_349_47"/>
<feColorMatrix in="SourceAlpha" type="matrix" values="0 0 0 0 0 0 0 0 0 0 0 0 0 0 0 0 0 0 127 0" result="hardAlpha"/>
<feOffset dx="4" dy="4"/>
<feGaussianBlur stdDeviation="2"/>
<feComposite in2="hardAlpha" operator="out"/>
<feColorMatrix type="matrix" values="0 0 0 0 0 0 0 0 0 0 0 0 0 0 0 0 0 0 0.25 0"/>
<feBlend mode="normal" in2="effect1_dropShadow_349_47" result="effect2_dropShadow_349_47"/>
<feBlend mode="normal" in="SourceGraphic" in2="effect2_dropShadow_349_47" result="shape"/>
<feColorMatrix in="SourceAlpha" type="matrix" values="0 0 0 0 0 0 0 0 0 0 0 0 0 0 0 0 0 0 127 0" result="hardAlpha"/>
<feOffset dx="4" dy="4"/>
<feGaussianBlur stdDeviation="4"/>
<feComposite in2="hardAlpha" operator="arithmetic" k2="-1" k3="1"/>
<feColorMatrix type="matrix" values="0 0 0 0 0 0 0 0 0 0 0 0 0 0 0 0 0 0 0.25 0"/>
<feBlend mode="normal" in2="shape" result="effect3_innerShadow_349_47"/>
<feColorMatrix in="SourceAlpha" type="matrix" values="0 0 0 0 0 0 0 0 0 0 0 0 0 0 0 0 0 0 127 0" result="hardAlpha"/>
<feOffset dx="-4" dy="-4"/>
<feGaussianBlur stdDeviation="4"/>
<feComposite in2="hardAlpha" operator="arithmetic" k2="-1" k3="1"/>
<feColorMatrix type="matrix" values="0 0 0 0 1 0 0 0 0 1 0 0 0 0 1 0 0 0 0.71 0"/>
<feBlend mode="normal" in2="effect3_innerShadow_349_47" result="effect4_innerShadow_349_47"/>
</filter>
</defs>
</svg>
