<svg width="875" height="699" viewBox="0 0 875 699" fill="none" xmlns="http://www.w3.org/2000/svg">
<mask id="mask0" style="mask-type:alpha" maskUnits="userSpaceOnUse" x="0" y="0" width="875" height="699">
<rect width="875" height="699" fill="black"/>
</mask>
<g mask="url(#mask0)">
<g opacity="0.48">
<path d="M34.2006 720.351L93.1157 754.212L34.1877 731.211L34.1856 732.93L102.472 759.588L103.55 758.305L34.2029 718.443L34.2006 720.351Z" fill="white"/>
<path d="M367.717 815.813L369.77 815.816L338.085 703.638L337.761 702.485L178.013 790.712L179.213 791.941L336.456 705.09L367.717 815.813Z" fill="white"/>
<path d="M239.793 815.661L179.462 793.981L178.584 795.34L235.087 815.656L239.793 815.661Z" fill="white"/>
<path d="M177.279 797.832C175.002 797.017 174.053 794.976 175.131 793.258C176.21 791.541 178.914 790.826 181.192 791.641C183.469 792.456 184.418 794.497 183.339 796.215C182.261 797.913 179.531 798.647 177.279 797.832Z" fill="white"/>
<path d="M176.088 788.462C174.059 789.574 173.631 791.727 175.106 793.259C176.582 794.79 179.435 795.115 181.464 794.003C183.493 792.891 183.921 790.738 182.446 789.206C180.971 787.675 178.118 787.35 176.088 788.462Z" fill="white"/>
<path d="M369.77 815.816L338.534 705.186L403.568 729.781L390.473 815.84L392.501 815.843L405.722 728.896L335.683 702.406L367.717 815.813L369.77 815.816Z" fill="white"/>
<path d="M733.732 634.278L601.335 542.36L653.724 507.12L655.049 508.255L604.339 542.383L728.006 628.245L658.428 508.807L660.281 508.185L733.732 634.278Z" fill="white"/>
<path d="M655.273 510.031C654.273 508.292 655.302 506.272 657.606 505.519C659.91 504.766 662.588 505.544 663.587 507.283C664.586 509.022 663.558 511.042 661.254 511.794C658.975 512.547 656.297 511.77 655.273 510.031Z" fill="white"/>
<path d="M657.25 510.353C659.129 509.09 659.282 506.919 657.606 505.519C655.93 504.101 653.052 503.983 651.198 505.246C649.319 506.51 649.166 508.682 650.842 510.081C652.493 511.481 655.371 511.617 657.25 510.353Z" fill="white"/>
<path d="M730.48 632.479L729.956 631.572L658.429 508.807L660.282 508.185L731.259 630.044L810.75 581.33L660.683 507.921L661.786 506.657L814.18 581.183L730.48 632.479Z" fill="white"/>
<path d="M658.952 510.262C656.85 509.239 656.252 507.104 657.606 505.519C658.96 503.934 661.789 503.484 663.891 504.506C665.992 505.529 666.59 507.664 665.237 509.249C663.883 510.834 661.054 511.284 658.952 510.262Z" fill="white"/>
<path d="M663.612 507.283C662.613 505.544 659.91 504.766 657.631 505.519C655.327 506.272 654.298 508.311 655.298 510.031C656.297 511.77 659 512.547 661.279 511.795C663.558 511.042 664.612 509.003 663.612 507.283Z" fill="white"/>
<path d="M772.091 628.883L727.626 632.268L816.136 578.012L779.355 625.36L777.628 624.602L808.768 584.501L734.112 630.255L771.892 627.372L772.091 628.883Z" fill="white"/>
<path d="M782.533 626.572C781.255 628.214 778.475 628.758 776.298 627.792C774.121 626.826 773.398 624.729 774.677 623.087C775.955 621.445 778.735 620.901 780.912 621.867C783.063 622.833 783.787 624.93 782.533 626.572Z" fill="white"/>
<path d="M772.238 631.547C774.741 631.361 776.546 629.682 776.298 627.793C776.05 625.904 773.823 624.541 771.319 624.727C768.816 624.913 767.011 626.592 767.26 628.481C767.508 630.37 769.734 631.752 772.238 631.547Z" fill="white"/>
<path d="M173.653 795.013L203.736 675.069L205.714 675.355L176.586 791.503L334.906 704.049L209.321 673.735L209.948 672.281L339.312 703.525L173.653 795.013Z" fill="white"/>
<path d="M200.206 674.744C200.684 672.874 203.063 671.668 205.516 672.011C207.994 672.373 209.594 674.169 209.142 676.02C208.689 677.87 206.284 679.095 203.831 678.752C201.353 678.39 199.728 676.594 200.206 674.744Z" fill="white"/>
<path d="M211.227 669.79C208.824 669.22 206.27 670.199 205.516 672.011C204.763 673.824 206.063 675.752 208.465 676.322C210.868 676.891 213.423 675.912 214.176 674.1C214.954 672.306 213.63 670.359 211.227 669.79Z" fill="white"/>
<path d="M344.09 706.27L202.537 672.083L241.905 660.249L242.655 661.667L208.496 671.939L330.102 701.305L249.388 662.147L250.466 660.864L344.09 706.27Z" fill="white"/>
<path d="M247.658 664.487C245.556 663.465 244.933 661.33 246.287 659.745C247.641 658.16 250.47 657.691 252.572 658.713C254.673 659.736 255.297 661.852 253.943 663.456C252.589 665.06 249.785 665.51 247.658 664.487Z" fill="white"/>
<path d="M243.753 664.199C246.082 663.503 247.211 661.502 246.287 659.745C245.363 657.987 242.71 657.134 240.381 657.83C238.052 658.526 236.924 660.527 237.848 662.285C238.772 664.042 241.424 664.914 243.753 664.199Z" fill="white"/>
<path d="M403.266 730.744L448.442 550.527L450.419 550.812L406.023 727.952L626.426 641.592L453.199 549.966L454.352 548.72L630.306 641.804L403.266 730.744Z" fill="white"/>
<path d="M451.345 552.249C449.293 551.17 448.795 549.016 450.224 547.469C451.652 545.921 454.507 545.547 456.558 546.626C458.61 547.705 459.108 549.859 457.679 551.406C456.25 552.972 453.421 553.347 451.345 552.249Z" fill="white"/>
<path d="M453.873 551.478C454.351 549.608 452.726 547.812 450.248 547.469C447.77 547.107 445.39 548.332 444.937 550.201C444.459 552.071 446.085 553.867 448.562 554.21C451.015 554.572 453.395 553.347 453.873 551.478Z" fill="white"/>
<path d="M592.419 798.25L402.392 729.365L629.657 640.33L598.405 795.877L596.403 795.629L627.076 643.066L406.898 729.313L593.297 796.872L592.419 798.25Z" fill="white"/>
<path d="M601.935 796.109C601.557 797.978 599.253 799.279 596.749 798.993C594.246 798.706 592.571 796.967 592.924 795.078C593.302 793.209 595.606 791.927 598.109 792.194C600.612 792.481 602.313 794.22 601.935 796.109Z" fill="white"/>
<path d="M590.689 800.59C592.941 801.405 595.671 800.691 596.749 798.993C597.828 797.294 596.879 795.233 594.627 794.418C592.375 793.603 589.645 794.318 588.566 796.017C587.463 797.715 588.437 799.756 590.689 800.59Z" fill="white"/>
<path d="M629.83 643.409L627.778 642.33L447.246 546.823L598.483 541.752L598.556 543.263L453.252 548.133L626.905 639.987L602.659 545.705L604.637 545.424L629.83 643.409Z" fill="white"/>
<path d="M599.228 546.381C598.755 544.529 600.359 542.718 602.838 542.362C605.292 542.006 607.693 543.218 608.167 545.088C608.64 546.94 607.036 548.751 604.557 549.107C602.103 549.463 599.702 548.251 599.228 546.381Z" fill="white"/>
<path d="M598.503 545.946C601.006 545.854 602.961 544.251 602.838 542.362C602.715 540.473 600.589 538.997 598.085 539.089C595.582 539.18 593.627 540.783 593.75 542.672C593.848 544.561 595.974 546.037 598.503 545.946Z" fill="white"/>
<path d="M733.134 631.802L627.552 642.556L602.659 545.705L604.637 545.424L629.181 640.839L728.604 630.72L605.338 545.122L606.691 544.009L733.134 631.802Z" fill="white"/>
<path d="M603.107 547.217C601.256 545.93 601.134 543.757 602.838 542.362C604.542 540.966 607.42 540.875 609.271 542.162C611.122 543.448 611.245 545.621 609.541 547.016C607.837 548.412 604.958 548.503 603.107 547.217Z" fill="white"/>
<path d="M608.167 545.088C607.693 543.236 605.292 542.006 602.838 542.362C600.384 542.718 598.755 544.529 599.228 546.381C599.702 548.232 602.103 549.463 604.557 549.107C607.036 548.751 608.64 546.94 608.167 545.088Z" fill="white"/>
<path d="M175.755 794.789L129.583 760.81L202.335 674.35L203.886 675.089L205.688 675.355L175.755 794.789ZM132.187 760.587L174.482 791.728L203.56 675.768L132.187 760.587Z" fill="white"/>
<path d="M199.232 673.061C200.586 671.457 203.39 670.989 205.516 672.011C207.643 673.034 208.267 675.15 206.913 676.754C205.559 678.357 202.755 678.826 200.628 677.804C198.527 676.781 197.903 674.665 199.232 673.061Z" fill="white"/>
<path d="M209.142 676.02C209.619 674.15 207.994 672.354 205.516 672.011C203.038 671.649 200.659 672.874 200.206 674.744C199.728 676.613 201.353 678.409 203.831 678.752C206.284 679.114 208.664 677.889 209.142 676.02Z" fill="white"/>
<path d="M338.253 709.021L309.221 640.252L331.019 624.619L332.419 625.735L311.523 640.708L335.938 698.554L333.946 626.209L335.949 626.174L338.253 709.021Z" fill="white"/>
<path d="M330.416 626.432C330.368 624.543 332.348 622.977 334.877 622.924C337.38 622.889 339.456 624.384 339.529 626.291C339.577 628.18 337.597 629.746 335.069 629.799C332.54 629.834 330.464 628.321 330.416 626.432Z" fill="white"/>
<path d="M334.695 627.776C336.524 626.475 336.577 624.303 334.851 622.922C333.125 621.541 330.246 621.5 328.417 622.801C326.588 624.102 326.536 626.274 328.261 627.655C329.987 629.036 332.866 629.096 334.695 627.776Z" fill="white"/>
<path d="M406.87 731.051L336.106 704.277L336.106 703.824L333.946 626.228L335.898 626.192L337.676 625.533L406.87 731.051ZM338.11 703.317L402.418 727.646L335.973 626.325L338.11 703.317Z" fill="white"/>
<path d="M330.416 626.432C330.368 624.543 332.348 622.977 334.877 622.924C337.38 622.889 339.456 624.384 339.529 626.291C339.577 628.18 337.597 629.746 335.069 629.799C332.54 629.834 330.464 628.321 330.416 626.432Z" fill="white"/>
<path d="M340.957 624.498C339.833 622.797 337.105 622.094 334.876 622.942C332.622 623.789 331.693 625.847 332.818 627.529C333.942 629.231 336.67 629.933 338.899 629.085C341.128 628.238 342.057 626.18 340.957 624.498Z" fill="white"/>
<path d="M405.067 731.709L335.874 626.192L337.677 625.514L404.197 726.967L448.718 549.488L338.783 621.379L337.458 620.225L451.777 545.468L405.067 731.709Z" fill="white"/>
<path d="M332.793 627.53C331.668 625.828 332.597 623.771 334.851 622.942C337.105 622.095 339.833 622.797 340.933 624.498C342.057 626.2 341.128 628.257 338.874 629.086C336.62 629.914 333.917 629.231 332.793 627.53Z" fill="white"/>
<path d="M335.308 618.088C333.404 619.332 333.201 621.504 334.852 622.923C336.502 624.36 339.381 624.515 341.26 623.27C343.164 622.026 343.367 619.854 341.716 618.435C340.091 616.998 337.212 616.843 335.308 618.088Z" fill="white"/>
<path d="M340.811 706.493L249.388 662.147L250.466 660.864L333.382 701.082L288.979 652.75L250.744 659.731L250.245 658.238L289.832 651.032L340.811 706.493Z" fill="white"/>
<path d="M247.658 664.487C245.556 663.465 244.933 661.33 246.287 659.745C247.641 658.16 250.47 657.691 252.572 658.713C254.673 659.736 255.297 661.852 253.943 663.456C252.589 665.06 249.785 665.51 247.658 664.487Z" fill="white"/>
<path d="M249.646 655.612C247.218 656.062 245.713 657.912 246.287 659.745C246.886 661.578 249.338 662.713 251.766 662.282C254.195 661.831 255.7 659.982 255.126 658.149C254.552 656.297 252.075 655.161 249.646 655.612Z" fill="white"/>
<path d="M340.107 708.381L291.028 655.001L292.707 654.134L334.11 699.194L309.845 641.707L293.487 650.603L292.312 649.374L310.924 639.253L340.107 708.381Z" fill="white"/>
<path d="M288.248 656.659C286.822 655.109 287.326 652.956 289.38 651.882C291.434 650.808 294.287 651.189 295.712 652.739C297.138 654.29 296.634 656.443 294.58 657.517C292.526 658.61 289.698 658.21 288.248 656.659Z" fill="white"/>
<path d="M290.437 647.104C288.408 648.216 287.929 650.35 289.405 651.901C290.88 653.433 293.708 653.795 295.762 652.683C297.791 651.571 298.27 649.437 296.794 647.886C295.319 646.336 292.466 645.992 290.437 647.104Z" fill="white"/>
<path d="M392.501 815.843L405.368 731.275L493.488 815.963L496.041 815.966L403.921 727.42L390.473 815.84L392.501 815.843Z" fill="white"/>
<path d="M496.041 815.966L408.097 731.449L595.272 799.273L580.532 816.066L582.935 816.069L598.252 798.672L401.168 727.247L493.488 815.963L496.041 815.966Z" fill="white"/>
<path d="M700.867 651.37L700.416 651.313L632.484 642.978L632.736 641.75L632.512 640.522L734.162 630.179L700.867 651.37ZM635.214 641.772L700.268 649.764L727.576 632.362L635.214 641.772Z" fill="white"/>
<path d="M633.483 644.642C631.004 644.904 628.703 643.579 628.354 641.708C628.006 639.838 629.761 638.102 632.239 637.841C634.718 637.579 637.02 638.904 637.368 640.775C637.716 642.664 635.962 644.381 633.483 644.642Z" fill="white"/>
<path d="M633.565 638.862C631.087 638.556 628.757 639.819 628.354 641.689C627.951 643.558 629.627 645.317 632.105 645.622C634.583 645.927 636.912 644.664 637.315 642.795C637.743 640.925 636.068 639.167 633.565 638.862Z" fill="white"/>
<path d="M600.857 797.693L599.682 796.464L637.683 775.788L627.92 648.998L598.405 795.877L596.403 795.629L628.814 634.398L639.76 776.546L600.857 797.693Z" fill="white"/>
<path d="M601.935 796.109C601.557 797.978 599.253 799.279 596.749 798.993C594.246 798.706 592.571 796.967 592.924 795.078C593.302 793.209 595.606 791.927 598.109 792.194C600.612 792.481 602.313 794.22 601.935 796.109Z" fill="white"/>
<path d="M597.781 794.195C595.752 795.307 595.274 797.441 596.749 798.992C598.224 800.523 601.053 800.886 603.107 799.774C605.136 798.662 605.614 796.528 604.139 794.977C602.664 793.427 599.835 793.083 597.781 794.195Z" fill="white"/>
<path d="M637.856 778.264L637.708 776.224L627.353 641.744L629.356 641.539L660.92 750.884L658.966 751.203L630.121 651.324L639.563 774.073L657.458 756.358L659.059 757.285L637.856 778.264Z" fill="white"/>
<path d="M664.349 750.151C664.873 752.003 663.318 753.833 660.865 754.227C658.411 754.621 655.984 753.447 655.46 751.595C654.937 749.743 656.491 747.913 658.945 747.519C661.374 747.107 663.801 748.299 664.349 750.151Z" fill="white"/>
<path d="M661.736 759.026C663.265 757.517 662.867 755.364 660.865 754.209C658.864 753.054 656.01 753.353 654.481 754.862C652.952 756.372 653.35 758.525 655.351 759.68C657.353 760.835 660.207 760.536 661.736 759.026Z" fill="white"/>
<path d="M90.139 815.484L103.925 759.043L104.076 758.495L34.1878 731.213L34.1858 732.932L101.822 759.324L88.0862 815.481L90.139 815.484Z" fill="white"/>
<path d="M874.617 534.544L814.833 578.445L816.259 579.523L874.615 536.678L874.617 534.544Z" fill="white"/>
<path d="M816.784 580.487L816.782 582.017L874.586 582.086L874.588 580.556L816.784 580.487Z" fill="white"/>
<path d="M817.005 584.681C814.502 584.678 812.451 583.146 812.453 581.238C812.455 579.349 814.485 577.803 817.013 577.806C819.517 577.809 821.568 579.341 821.565 581.249C821.538 583.157 819.508 584.684 817.005 584.681Z" fill="white"/>
<path d="M812.533 576.402C810.729 577.722 810.701 579.894 812.452 581.256C814.203 582.619 817.082 582.641 818.886 581.321C820.69 580.001 820.718 577.829 818.967 576.467C817.216 575.105 814.337 575.082 812.533 576.402Z" fill="white"/>
<path d="M874.617 534.544L815.61 577.879L874.682 480.145L874.686 476.462L813.332 577.971L814.984 578.54L816.259 579.523L874.615 536.659L874.617 534.544Z" fill="white"/>
<path d="M818.488 579.563C817.434 581.281 814.754 582.053 812.452 581.256C810.175 580.46 809.151 578.438 810.205 576.701C811.258 574.984 813.938 574.212 816.24 575.008C818.517 575.804 819.516 577.827 818.488 579.563Z" fill="white"/>
<path d="M812.533 576.402C810.729 577.722 810.701 579.894 812.452 581.256C814.203 582.619 817.082 582.641 818.886 581.321C820.69 580.001 820.718 577.829 818.967 576.467C817.216 575.105 814.337 575.082 812.533 576.402Z" fill="white"/>
<path d="M34.2408 686.352L46.3345 684.515L34.2322 693.643L34.2296 695.777L52.5209 682.029L34.2427 684.803L34.2408 686.352Z" fill="white"/>
<path d="M99.8728 756.185L34.2029 718.443L34.2006 720.351L106 761.632L52.3416 685.787L50.5634 686.503L99.8728 756.185Z" fill="white"/>
<path d="M9.70161 714.65L47.0839 686.103L45.6583 685.024L9.70417 712.497L9.70161 714.65Z" fill="white"/>
<path d="M43.0069 683.264C44.7859 681.925 47.6648 681.928 49.4406 683.272C51.2165 684.615 51.2139 686.787 49.4349 688.126C47.6559 689.465 44.7769 689.461 43.0011 688.118C41.2253 686.775 41.2279 684.603 43.0069 683.264Z" fill="white"/>
<path d="M4.99308 649.103C7.4731 647.236 11.4864 647.241 13.962 649.113C16.4376 650.986 16.434 654.014 13.954 655.881C11.4739 657.747 7.4606 657.742 4.98503 655.87C2.50946 653.997 2.51306 650.969 4.99308 649.103Z" fill="white"/>
<path d="M2.18269 654.211C4.66271 652.345 8.67604 652.35 11.1516 654.222C13.6272 656.095 13.6236 659.123 11.1436 660.989C8.66354 662.856 4.65021 662.851 2.17464 660.979C-0.300935 659.106 -0.297333 656.078 2.18269 654.211Z" fill="white"/>
<path d="M55.5722 684.676C54.3976 683.013 51.6446 682.367 49.4155 683.271C47.2114 684.156 46.3578 686.233 47.5574 687.916C48.732 689.579 51.485 690.225 53.7141 689.321C55.9182 688.436 56.7718 686.359 55.5722 684.676Z" fill="white"/>
<path d="M133.137 761.609L102.322 759.645L102.072 759.286L50.5883 686.523L51.8406 686.015L52.9178 685.355L133.137 761.609ZM103.575 758.192L128.658 759.79L55.5656 690.307L103.575 758.192Z" fill="white"/>
<path d="M47.5574 687.916C46.3828 686.252 47.2114 684.156 49.4155 683.271C51.6195 682.386 54.3976 683.013 55.5722 684.676C56.7468 686.34 55.9182 688.436 53.7141 689.321C51.485 690.225 48.732 689.579 47.5574 687.916Z" fill="white"/>
<path d="M55.8238 683.827C54.2734 682.352 51.3947 682.103 49.4406 683.272C47.4866 684.44 47.1586 686.612 48.709 688.087C50.2594 689.562 53.138 689.811 55.092 688.642C57.0461 687.474 57.3741 685.302 55.8238 683.827Z" fill="white"/>
<path d="M130.984 762.002L51.3149 686.297L52.9178 685.355L130.786 759.376L203.563 672.916L53.8214 683.712L53.6229 682.201L207.471 671.108L130.984 762.002Z" fill="white"/>
<path d="M48.683 688.088C47.1327 686.613 47.4607 684.441 49.4148 683.272C51.3688 682.103 54.2474 682.352 55.7978 683.827C57.3482 685.303 57.0201 687.474 55.0661 688.643C53.112 689.831 50.2584 689.582 48.683 688.088Z" fill="white"/>
<path d="M53.5256 679.537C51.022 679.723 49.1925 681.401 49.4406 683.272C49.6887 685.161 51.8901 686.543 54.3937 686.357C56.8973 686.171 58.7268 684.492 58.4787 682.622C58.2306 680.733 56.0292 679.351 53.5256 679.537Z" fill="white"/>
<path d="M814.227 583.034L660.683 507.921L661.786 506.657L810.677 579.479L765.346 468.89L661.963 504.844L661.113 503.464L766.601 466.776L766.925 467.607L814.227 583.034Z" fill="white"/>
<path d="M658.952 510.262C656.85 509.239 656.252 507.104 657.606 505.519C658.96 503.934 661.789 503.484 663.891 504.506C665.992 505.529 666.59 507.664 665.237 509.249C663.883 510.834 661.054 511.284 658.952 510.262Z" fill="white"/>
<path d="M659.84 500.95C657.561 501.741 656.557 503.78 657.607 505.5C658.656 507.22 661.359 507.979 663.638 507.188C665.917 506.397 666.921 504.359 665.871 502.638C664.822 500.918 662.119 500.16 659.84 500.95Z" fill="white"/>
<path d="M874.722 447.204L769.931 466.327L770.405 467.8L874.72 448.772L874.722 447.204Z" fill="white"/>
<path d="M874.686 476.462L812.63 579.123L768.198 470.726L766.27 471.177L812.275 583.391L874.682 480.145L874.686 476.462Z" fill="white"/>
<path d="M762.964 472.117C762.215 470.303 763.569 468.378 765.973 467.833C768.377 467.269 770.929 468.292 771.653 470.106C772.402 471.92 771.048 473.845 768.644 474.39C766.265 474.954 763.713 473.931 762.964 472.117Z" fill="white"/>
<path d="M769.308 463.7C766.879 464.151 765.375 466 765.948 467.833C766.547 469.666 768.999 470.802 771.428 470.371C773.856 469.92 775.361 468.071 774.787 466.238C774.213 464.386 771.761 463.25 769.308 463.7Z" fill="white"/>
<path d="M874.543 597.216L816.858 581.64L816.18 583.075L874.541 598.84L874.543 597.216Z" fill="white"/>
<path d="M874.496 637.316L815.98 583.301L814.402 584.263L874.493 639.715L874.496 637.316Z" fill="white"/>
<path d="M811.821 586.072C810.22 584.597 810.524 582.445 812.453 581.238C814.407 580.031 817.26 580.261 818.86 581.717C820.461 583.192 820.158 585.345 818.229 586.552C816.275 587.758 813.396 587.547 811.821 586.072Z" fill="white"/>
<path d="M818.263 579.186C815.886 578.541 813.305 579.482 812.452 581.256C811.599 583.031 812.849 584.997 815.201 585.642C817.554 586.287 820.158 585.346 821.012 583.571C821.865 581.778 820.64 579.812 818.263 579.186Z" fill="white"/>
<path d="M874.543 597.216L818.284 582.019L874.561 582.086L874.562 580.556L816.784 580.507L816.782 581.829L816.18 583.075L874.541 598.84L874.543 597.216Z" fill="white"/>
<path d="M817.005 584.681C814.502 584.678 812.451 583.146 812.453 581.238C812.455 579.349 814.485 577.803 817.013 577.806C819.517 577.809 821.568 579.341 821.565 581.249C821.538 583.157 819.508 584.684 817.005 584.681Z" fill="white"/>
<path d="M818.263 579.186C815.886 578.541 813.305 579.482 812.452 581.256C811.599 583.031 812.849 584.997 815.201 585.642C817.554 586.287 820.158 585.346 821.012 583.571C821.865 581.778 820.64 579.812 818.263 579.186Z" fill="white"/>
<path d="M839.6 656.692L779.524 630.101L780.527 628.78L836.424 653.514L812.099 583.221L779.355 625.36L777.628 624.602L812.805 579.293L839.6 656.692Z" fill="white"/>
<path d="M782.533 626.572C781.255 628.214 778.475 628.758 776.298 627.792C774.121 626.826 773.398 624.729 774.677 623.087C775.955 621.445 778.735 620.901 780.912 621.867C783.063 622.833 783.787 624.93 782.533 626.572Z" fill="white"/>
<path d="M782.533 626.572C780.356 625.606 777.577 626.169 776.298 627.792C775.02 629.434 775.768 631.531 777.919 632.478C780.096 633.444 782.876 632.881 784.154 631.258C785.408 629.635 784.685 627.538 782.533 626.572Z" fill="white"/>
<path d="M874.395 721.86L839.476 655.842L874.474 655.298L874.476 653.787L836.523 654.365L874.39 725.959L874.395 721.86Z" fill="white"/>
<path d="M874.476 653.787L838.776 654.329L814.601 584.432L874.492 639.714L874.495 637.315L815.979 583.3L814.451 584.224L812.573 584.6L837.222 655.876L874.474 655.298L874.476 653.787Z" fill="white"/>
<path d="M811.821 586.072C810.22 584.597 810.524 582.445 812.453 581.238C814.407 580.031 817.26 580.261 818.86 581.717C820.461 583.192 820.158 585.345 818.229 586.552C816.275 587.758 813.396 587.547 811.821 586.072Z" fill="white"/>
<path d="M818.006 583.7C817.382 581.867 814.88 580.768 812.451 581.238C810.023 581.707 808.568 583.594 809.192 585.427C809.816 587.26 812.318 588.359 814.747 587.889C817.176 587.42 818.63 585.552 818.006 583.7Z" fill="white"/>
<path d="M239.793 815.661L179.462 793.981L178.584 795.34L235.087 815.656L239.793 815.661Z" fill="white"/>
<path d="M185.419 815.596L177.381 796.131L175.453 796.601L183.316 815.594L185.419 815.596Z" fill="white"/>
<path d="M177.279 797.832C175.002 797.017 174.053 794.976 175.131 793.258C176.21 791.541 178.914 790.826 181.192 791.641C183.469 792.456 184.418 794.497 183.339 796.215C182.261 797.913 179.531 798.647 177.279 797.832Z" fill="white"/>
<path d="M180.811 795.512C180.062 793.698 177.51 792.695 175.106 793.259C172.702 793.822 171.373 795.747 172.122 797.561C172.871 799.375 175.423 800.379 177.827 799.815C180.231 799.252 181.56 797.327 180.811 795.512Z" fill="white"/>
<path d="M90.139 815.484L103.396 761.176L141.859 815.544L144.137 815.547L102.476 756.622L88.111 815.481L90.139 815.484Z" fill="white"/>
<path d="M150.922 815.555L131.687 759.981L107.33 758.422L107.153 759.933L130.083 761.396L148.819 815.553L150.922 815.555Z" fill="white"/>
<path d="M144.137 815.547L105.849 761.424L104.071 762.14L141.859 815.544L144.137 815.547Z" fill="white"/>
<path d="M107.074 762.616C104.571 762.461 102.721 760.797 102.923 758.909C103.126 757.02 105.33 755.625 107.834 755.779C110.337 755.933 112.187 757.597 111.985 759.486C111.782 761.375 109.578 762.77 107.074 762.616Z" fill="white"/>
<path d="M109.081 760.314C107.906 758.65 105.152 758.005 102.923 758.909C100.719 759.794 99.8663 761.871 101.066 763.553C102.241 765.217 104.994 765.862 107.223 764.958C109.427 764.073 110.28 761.996 109.081 760.314Z" fill="white"/>
<path d="M163.964 815.571L166.092 815.574L176.082 793.505L176.283 793.052L134.688 762.422L133.284 763.516L173.954 793.465L163.964 815.571Z" fill="white"/>
<path d="M150.922 815.555L132.958 763.647L131.005 764.042L148.819 815.553L150.922 815.555Z" fill="white"/>
<path d="M130.979 765.552C129.178 764.228 129.156 762.056 130.91 760.698C132.664 759.34 135.542 759.325 137.343 760.649C139.144 761.973 139.167 764.145 137.413 765.503C135.659 766.842 132.755 766.877 130.979 765.552Z" fill="white"/>
<path d="M136.439 763.142C135.816 761.309 133.314 760.21 130.885 760.68C128.456 761.149 127.002 763.036 127.625 764.869C128.249 766.702 130.751 767.801 133.18 767.331C135.609 766.862 137.063 764.975 136.439 763.142Z" fill="white"/>
<path d="M166.092 815.574L175.079 795.713L183.316 815.594L185.419 815.596L175.159 790.802L163.964 815.571L166.092 815.574Z" fill="white"/>
<path d="M663.972 751.831L662.246 751.036L708.527 693.802L629.979 643.73L660.92 750.884L658.966 751.203L626.755 639.665L711.156 693.484L663.972 751.831Z" fill="white"/>
<path d="M664.349 750.151C664.873 752.003 663.318 753.833 660.865 754.227C658.411 754.621 655.984 753.447 655.46 751.595C654.937 749.743 656.491 747.913 658.945 747.519C661.374 747.107 663.801 748.299 664.349 750.151Z" fill="white"/>
<path d="M659.344 749.502C658.04 751.125 658.714 753.222 660.865 754.226C663.017 755.211 665.797 754.704 667.125 753.081C668.429 751.458 667.756 749.361 665.604 748.357C663.452 747.373 660.648 747.898 659.344 749.502Z" fill="white"/>
<path d="M698.413 757.388L659.162 754.886L711.21 690.481L704.15 753.711L702.147 753.596L708.474 696.787L662.569 753.567L698.565 755.877L698.413 757.388Z" fill="white"/>
<path d="M707.704 753.773C707.502 755.661 705.297 757.056 702.794 756.902C700.291 756.748 698.44 755.084 698.643 753.195C698.845 751.307 701.05 749.911 703.553 750.066C706.056 750.22 707.907 751.884 707.704 753.773Z" fill="white"/>
<path d="M697.883 760.032C700.386 760.186 702.591 758.791 702.794 756.902C702.997 755.014 701.146 753.349 698.643 753.195C696.14 753.041 693.934 754.437 693.732 756.325C693.529 758.214 695.38 759.878 697.883 760.032Z" fill="white"/>
<path d="M711.278 695.544L631.005 644.374L632.308 643.223L708.404 691.725L699.69 651.218L632.458 642.978L632.786 641.467L701.444 649.898L701.569 650.446L711.278 695.544Z" fill="white"/>
<path d="M632.13 645.641C629.652 645.336 627.977 643.577 628.38 641.707C628.783 639.838 631.112 638.575 633.59 638.88C636.068 639.186 637.744 640.944 637.341 642.814C636.938 644.664 634.608 645.946 632.13 645.641Z" fill="white"/>
<path d="M634.764 641.3C632.837 640.07 629.983 640.256 628.354 641.708C626.725 643.161 626.973 645.314 628.899 646.544C630.826 647.774 633.68 647.588 635.309 646.136C636.938 644.683 636.69 642.511 634.764 641.3Z" fill="white"/>
<path d="M874.369 743.034L703.896 756.054L710.728 694.693L874.371 740.976L874.373 739.351L710.204 692.917L708.953 692.575L701.691 757.751L874.367 744.564L874.369 743.034Z" fill="white"/>
<path d="M709.624 697.374L700.262 653.901L702.265 653.657L710.058 689.914L729.126 633.365L704.524 649.032L703.224 647.879L732.611 629.157L709.624 697.374Z" fill="white"/>
<path d="M706.976 650.981C705.047 652.206 702.193 652.014 700.568 650.577C698.942 649.139 699.195 646.967 701.099 645.742C703.028 644.516 705.882 644.709 707.507 646.146C709.133 647.584 708.905 649.755 706.976 650.981Z" fill="white"/>
<path d="M705.796 653.397C705.397 651.526 703.046 650.258 700.567 650.557C698.088 650.857 696.409 652.63 696.807 654.5C697.205 656.371 699.557 657.639 702.036 657.34C704.514 657.041 706.194 655.267 705.796 653.397Z" fill="white"/>
<path d="M707.646 697.069L728.825 634.233L730.777 634.614L712.035 690.199L774.093 628.734L735.262 631.691L735.063 630.18L778.501 626.85L707.646 697.069Z" fill="white"/>
<path d="M735.86 634.337C733.356 634.523 731.13 633.16 730.882 631.271C730.634 629.382 732.438 627.703 734.942 627.517C737.445 627.331 739.672 628.694 739.92 630.583C740.168 632.453 738.364 634.132 735.86 634.337Z" fill="white"/>
<path d="M734.156 635.43C734.784 633.598 733.31 631.727 730.882 631.251C728.454 630.776 725.975 631.888 725.346 633.719C724.718 635.551 726.193 637.422 728.621 637.897C731.074 638.373 733.528 637.261 734.156 635.43Z" fill="white"/>
<path d="M706.848 695.349L772.891 629.922L774.492 630.85L712.86 691.918L835.721 654.968L779.524 630.101L780.527 628.78L840.302 655.237L706.848 695.349Z" fill="white"/>
<path d="M777.919 632.498C775.742 631.532 775.019 629.435 776.298 627.812C777.576 626.17 780.356 625.626 782.533 626.592C784.709 627.557 785.433 629.655 784.154 631.278C782.876 632.901 780.096 633.445 777.919 632.498Z" fill="white"/>
<path d="M777.168 632.61C778.697 631.101 778.3 628.947 776.298 627.792C774.297 626.638 771.442 626.937 769.913 628.446C768.384 629.956 768.782 632.109 770.784 633.245C772.785 634.4 775.639 634.101 777.168 632.61Z" fill="white"/>
<path d="M874.373 739.351L712.632 693.618L837.447 656.084L874.39 725.959L874.395 721.86L838.576 654.121L707.049 693.649L874.371 740.976L874.373 739.351Z" fill="white"/>
<path d="M326.811 563.698L151.761 552.591L174.537 535.826L176.487 537.321L158.096 550.88L311.043 560.581L185.226 535.594L185.955 533.554L327.264 561.621L326.811 563.698Z" fill="white"/>
<path d="M184.296 539.238C180.917 538.572 178.918 535.963 179.797 533.433C180.676 530.885 184.132 529.378 187.486 530.043C190.865 530.708 192.865 533.317 191.986 535.847C191.106 538.377 187.675 539.903 184.296 539.238Z" fill="white"/>
<path d="M179.689 540.14C182.169 538.311 182.223 535.289 179.797 533.416C177.371 531.543 173.366 531.5 170.885 533.33C168.404 535.159 168.351 538.181 170.777 540.054C173.203 541.945 177.208 541.988 179.689 540.14Z" fill="white"/>
<path d="M765.801 591.117L762.972 591.02L449.409 578.955L449.537 576.839L760.271 588.807L587.811 400.038L447.788 574.344L445.411 573.246L587.665 396.166L765.801 591.117Z" fill="white"/>
<path d="M449.48 582.656C446.001 582.52 443.325 580.288 443.503 577.663C443.681 575.038 446.638 573.02 450.118 573.156C453.597 573.293 456.273 575.525 456.095 578.15C455.916 580.775 452.96 582.793 449.48 582.656Z" fill="white"/>
<path d="M441.382 571.126C439.577 573.371 440.525 576.3 443.502 577.664C446.48 579.027 450.361 578.314 452.166 576.068C453.971 573.823 453.023 570.894 450.046 569.53C447.043 568.167 443.187 568.88 441.382 571.126Z" fill="white"/>
<path d="M762.729 585.333L760.451 585.822L758.497 586.839L584.936 396.899L693.252 402.732L762.729 585.333ZM590.541 399.304L759.326 584.045L691.096 404.712L590.541 399.304Z" fill="white"/>
<path d="M767.363 584.074C768.311 586.606 766.38 589.229 763.05 589.962C759.694 590.695 756.217 589.217 755.243 586.704C754.295 584.172 756.226 581.548 759.556 580.816C762.911 580.083 766.389 581.56 767.363 584.074Z" fill="white"/>
<path d="M754.264 588.743C756.239 590.898 760.169 591.451 763.024 589.962C765.88 588.473 766.609 585.509 764.634 583.353C762.659 581.197 758.729 580.645 755.874 582.134C753.018 583.623 752.289 586.568 754.264 588.743Z" fill="white"/>
<path d="M875.218 29.3917L875.222 26.4829L863.416 17.9691L861.486 19.4968L875.218 29.3917Z" fill="white"/>
<path d="M875.134 100.507L815.923 84.193L856.779 20.1342L854.277 19.2057L812.066 85.3595L875.131 102.755L875.134 100.507Z" fill="white"/>
<path d="M858.328 22.327C855.802 20.5107 855.73 17.5074 858.136 15.6025C860.542 13.6976 864.522 13.6457 867.048 15.462C869.575 17.2783 869.646 20.2816 867.241 22.1865C864.835 24.0725 860.855 24.1433 858.328 22.327Z" fill="white"/>
<path d="M861.083 21.9521C862.588 19.5929 861.264 16.7395 858.136 15.6025C855.008 14.4655 851.227 15.4617 849.722 17.821C848.218 20.1802 849.541 23.0339 852.669 24.1709C855.797 25.3079 859.553 24.3113 861.083 21.9521Z" fill="white"/>
<path d="M875.233 16.9071L864.27 15.383L863.767 17.4601L875.231 19.0415L875.233 16.9071Z" fill="white"/>
<path d="M875.222 26.4829L863.416 17.9691L861.486 19.4968L875.218 29.3917L875.222 26.4829Z" fill="white"/>
<path d="M863.187 21.1421C859.758 20.6658 857.482 18.1887 858.111 15.6017C858.74 13.0148 862.022 11.2998 865.451 11.7761C868.88 12.2524 871.155 14.7295 870.526 17.3164C869.897 19.9034 866.616 21.6184 863.187 21.1421Z" fill="white"/>
<path d="M867.048 15.462C864.522 13.6457 860.541 13.7165 858.136 15.6025C855.73 17.5074 855.827 20.5108 858.328 22.327C860.855 24.1433 864.835 24.0725 867.241 22.1865C869.646 20.2816 869.55 17.2782 867.048 15.462Z" fill="white"/>
<path d="M40.6966 815.425L34.095 809.26L34.091 812.603L37.1168 815.421L40.6966 815.425Z" fill="white"/>
<path d="M268.332 815.696L34.1651 750.328L34.1624 752.575L260.246 815.686L268.332 815.696Z" fill="white"/>
<path d="M268.332 815.696L34.1651 750.328L34.1624 752.575L260.246 815.686L268.332 815.696Z" fill="white"/>
<path d="M296.77 815.73L299.799 815.733L155.368 549.801L8.04778 651.902L8.04408 655.019L154.463 553.672L296.77 815.73Z" fill="white"/>
<path d="M34.3319 610.213L73.1194 560.053L70.6923 558.993L34.3369 606.02L34.3319 610.213Z" fill="white"/>
<path d="M66.3133 557.326C68.0684 555.061 71.9246 554.291 74.9271 555.617C77.9296 556.943 78.9525 559.853 77.1975 562.117C75.4424 564.382 71.5862 565.152 68.5837 563.826C65.5812 562.519 64.5582 559.609 66.3133 557.326Z" fill="white"/>
<path d="M68.3119 560.142C71.7914 560.278 74.7479 558.242 74.9262 555.635C75.1046 553.01 72.4036 550.778 68.949 550.641C65.4694 550.505 62.513 552.542 62.3346 555.148C62.1563 557.773 64.8573 560.005 68.3119 560.142Z" fill="white"/>
<path d="M73.1194 560.053L70.6923 558.993L7.10569 652.361L7.1007 656.555L73.1194 560.053Z" fill="white"/>
<path d="M80.9842 556.379L151.534 552.969L7.56612 652.42L7.56241 655.536L158.297 550.522L80.8115 554.283L80.9842 556.379Z" fill="white"/>
<path d="M66.3133 557.326C68.0684 555.061 71.9246 554.291 74.9271 555.617C77.9296 556.943 78.9525 559.853 77.1975 562.117C75.4424 564.382 71.5862 565.152 68.5837 563.826C65.5812 562.519 64.5582 559.609 66.3133 557.326Z" fill="white"/>
<path d="M80.8161 550.58C77.3362 550.746 74.704 553.009 74.9262 555.635C75.1484 558.261 78.151 560.248 81.6309 560.082C85.1109 559.916 87.7422 557.653 87.52 555.027C87.2728 552.401 84.271 550.414 80.8161 550.58Z" fill="white"/>
<path d="M442.849 580.496L396.808 414.846L399.537 414.415L444.132 574.831L585.108 399.317L403.021 410.887L402.773 408.79L590.343 396.868L442.849 580.496Z" fill="white"/>
<path d="M392.05 415.841C391.327 413.271 393.508 410.743 396.913 410.218C400.319 409.674 403.671 411.321 404.369 413.891C405.092 416.461 402.911 418.989 399.506 419.514C396.126 420.058 392.773 418.41 392.05 415.841Z" fill="white"/>
<path d="M402.678 405.069C399.198 405.292 396.641 407.593 396.939 410.2C397.236 412.826 400.288 414.756 403.743 414.534C407.223 414.311 409.779 412.01 409.482 409.403C409.209 406.796 406.158 404.847 402.678 405.069Z" fill="white"/>
<path d="M598.427 398.483L393.182 411.517L435.226 380.553L437.177 382.066L400.695 408.92L577.024 397.721L446.116 379.98L446.619 377.903L598.427 398.483Z" fill="white"/>
<path d="M445.587 383.682C442.157 383.225 439.882 380.748 440.486 378.161C441.09 375.574 444.372 373.859 447.801 374.316C451.23 374.774 453.505 377.251 452.901 379.838C452.272 382.425 448.991 384.14 445.587 383.682Z" fill="white"/>
<path d="M440.378 384.885C442.858 383.056 442.912 380.033 440.486 378.161C438.06 376.288 434.055 376.245 431.574 378.075C429.094 379.904 429.04 382.926 431.466 384.799C433.892 386.672 437.897 386.714 440.378 384.885Z" fill="white"/>
<path d="M875.023 193.684L628.486 152.497L627.883 154.556L875.021 195.837L875.023 193.684Z" fill="white"/>
<path d="M874.971 237.618L692.953 401.391L624.926 156.762L622.197 157.193L691.395 406.055L874.967 240.905L874.971 237.618Z" fill="white"/>
<path d="M627.128 158.218C623.724 157.648 621.574 155.114 622.328 152.546C623.082 149.978 626.438 148.358 629.842 148.928C633.246 149.499 635.396 152.033 634.642 154.601C633.888 157.169 630.532 158.789 627.128 158.218Z" fill="white"/>
<path d="M629.783 156.238C629.06 153.668 625.733 152.021 622.328 152.565C618.922 153.109 616.741 155.618 617.464 158.188C618.187 160.757 621.515 162.405 624.92 161.861C628.325 161.317 630.506 158.808 629.783 156.238Z" fill="white"/>
<path d="M874.765 410.145L695.029 402.791L874.967 240.905L874.971 237.618L689.319 404.654L874.763 412.242L874.765 410.145Z" fill="white"/>
<path d="M875.067 156.228L875.072 152.413L818.471 87.9546L816.142 89.1229L875.067 156.228Z" fill="white"/>
<path d="M875.023 193.684L626.633 152.193L809.159 87.6415L807.985 85.7324L618.021 152.919L875.021 195.837L875.023 193.684Z" fill="white"/>
<path d="M812.234 91.3659C810.309 89.1725 811.113 86.2269 813.994 84.776C816.899 83.325 820.804 83.9341 822.729 86.1086C824.654 88.3019 823.85 91.2475 820.969 92.6985C818.063 94.1494 814.159 93.5592 812.234 91.3659Z" fill="white"/>
<path d="M810.982 91.1002C814.138 89.9895 815.493 87.1579 814.019 84.7762C812.545 82.3945 808.791 81.3701 805.635 82.4807C802.48 83.5914 801.124 86.423 802.599 88.8047C804.073 91.1864 807.827 92.2109 810.982 91.1002Z" fill="white"/>
<path d="M875.134 100.507L820.102 85.331L819.148 87.3132L875.131 102.755L875.134 100.507Z" fill="white"/>
<path d="M875.072 152.413L818.471 87.9546L816.142 89.1229L875.067 156.228L875.072 152.413Z" fill="white"/>
<path d="M817.768 90.8622C814.489 89.9516 812.815 87.2297 813.995 84.7567C815.2 82.2838 818.806 81.0226 822.084 81.9142C825.363 82.8059 827.037 85.5466 825.857 88.0196C824.653 90.5115 821.046 91.7727 817.768 90.8622Z" fill="white"/>
<path d="M822.729 86.1086C820.804 83.9152 816.899 83.325 813.994 84.776C811.088 86.2269 810.308 89.1725 812.234 91.3659C814.159 93.5592 818.063 94.1494 820.969 92.6985C823.875 91.2475 824.654 88.3019 822.729 86.1086Z" fill="white"/>
<path d="M445.404 579.366L362.37 554.372L394.53 414.485L397.033 414.809L399.512 414.415L445.404 579.366ZM365.526 553.054L441.602 575.962L397.082 415.829L365.526 553.054Z" fill="white"/>
<path d="M389.649 414.082C390.253 411.495 393.509 409.762 396.938 410.219C400.368 410.676 402.668 413.135 402.064 415.722C401.46 418.309 398.203 420.042 394.774 419.585C391.345 419.128 389.045 416.669 389.649 414.082Z" fill="white"/>
<path d="M404.394 413.891C403.671 411.321 400.344 409.674 396.938 410.218C393.533 410.762 391.352 413.271 392.075 415.841C392.798 418.411 396.126 420.058 399.531 419.514C402.936 418.989 405.117 416.461 404.394 413.891Z" fill="white"/>
<path d="M592.913 404.351L507.287 327.94L524.169 299.174L526.722 300.027L510.542 327.585L582.564 391.853L529 300.03L531.554 299.183L592.913 404.351Z" fill="white"/>
<path d="M524.641 301.743C523.242 299.343 524.672 296.53 527.878 295.476C531.059 294.422 534.787 295.503 536.186 297.923C537.585 300.323 536.155 303.136 532.949 304.19C529.744 305.244 526.04 304.144 524.641 301.743Z" fill="white"/>
<path d="M531.075 301.751C532.48 299.354 531.056 296.538 527.853 295.476C524.675 294.415 520.944 295.487 519.539 297.903C518.134 300.3 519.558 303.116 522.761 304.178C525.939 305.239 529.67 304.148 531.075 301.751Z" fill="white"/>
<path d="M696.227 405.002L586.785 399.11L586.435 398.525L528.974 300.028L531.453 299.2L533.258 297.654L696.227 405.002ZM588.665 397.092L688.094 402.442L531.653 299.371L588.665 397.092Z" fill="white"/>
<path d="M524.641 301.743C523.242 299.343 524.672 296.53 527.878 295.476C531.059 294.422 534.787 295.503 536.186 297.923C537.585 300.323 536.155 303.136 532.949 304.19C529.744 305.244 526.04 304.144 524.641 301.743Z" fill="white"/>
<path d="M536.741 295.014C534.114 293.292 530.134 293.496 527.853 295.476C525.573 297.457 525.845 300.46 528.471 302.182C531.098 303.904 535.078 303.701 537.359 301.72C539.639 299.758 539.368 296.755 536.741 295.014Z" fill="white"/>
<path d="M694.398 406.587L531.454 299.24L533.283 297.655L689.949 400.859L621.797 155.738L531.788 291.892L529.286 290.964L622.882 149.374L694.398 406.587Z" fill="white"/>
<path d="M528.471 302.182C525.845 300.46 525.573 297.457 527.853 295.476C530.134 293.496 534.114 293.292 536.741 295.014C539.368 296.736 539.639 299.74 537.359 301.72C535.078 303.701 531.098 303.904 528.471 302.182Z" fill="white"/>
<path d="M525.032 289.088C523.477 291.428 524.75 294.302 527.853 295.476C530.956 296.651 534.762 295.692 536.317 293.351C537.872 291.011 536.599 288.139 533.496 286.964C530.368 285.789 526.587 286.748 525.032 289.088Z" fill="white"/>
<path d="M594.395 400.065L446.116 379.98L446.619 377.903L581.082 396.12L490.16 352.059L446.146 376.335L444.496 374.633L490.038 349.509L594.395 400.065Z" fill="white"/>
<path d="M445.587 383.682C442.157 383.225 439.882 380.748 440.486 378.161C441.09 375.574 444.372 373.859 447.801 374.316C451.23 374.774 453.505 377.251 452.901 379.838C452.272 382.425 448.991 384.14 445.587 383.682Z" fill="white"/>
<path d="M441.846 371.513C439.04 373.058 438.436 376.043 440.486 378.161C442.537 380.279 446.491 380.736 449.297 379.19C452.102 377.645 452.707 374.661 450.656 372.543C448.606 370.425 444.651 369.948 441.846 371.513Z" fill="white"/>
<path d="M594.817 402.785L494.388 354.123L495.893 352.349L580.659 393.419L509.088 329.566L494.421 347.493L492.044 346.394L508.741 325.977L594.817 402.785Z" fill="white"/>
<path d="M492.005 357.349C489.078 355.929 488.231 352.982 490.111 350.774C491.991 348.566 495.897 347.929 498.824 349.349C501.752 350.769 502.599 353.717 500.719 355.924C498.839 358.132 494.933 358.77 492.005 357.349Z" fill="white"/>
<path d="M488.041 344.236C486.211 346.463 487.133 349.411 490.111 350.774C493.063 352.156 496.97 351.462 498.775 349.217C500.605 346.99 499.682 344.043 496.705 342.679C493.752 341.316 489.871 342.01 488.041 344.236Z" fill="white"/>
<path d="M874.601 547.993L763.927 588.472L694.449 405.908L874.679 482.261L874.682 479.863L689.898 401.558L762.146 591.454L874.598 550.335L874.601 547.993Z" fill="white"/>
<path d="M874.572 573.152L773.041 587.481L874.598 550.335L874.601 547.993L753.033 592.443L874.569 575.286L874.572 573.152Z" fill="white"/>
<path d="M874.682 479.843L698.08 405.023L874.763 412.242L874.765 410.126L686.267 402.422L874.679 482.261L874.682 479.843Z" fill="white"/>
<path d="M158.044 552.637L80.9842 556.379L80.8115 554.283L151.813 550.835L124.4 529.647L80.587 553.81L78.9368 552.108L124.704 526.871L158.044 552.637Z" fill="white"/>
<path d="M81.6304 560.062C78.1505 560.228 75.1487 558.241 74.9265 555.616C74.7043 552.99 77.3356 550.726 80.8156 550.56C84.2955 550.395 87.2972 552.382 87.5194 555.007C87.7416 557.633 85.1103 559.896 81.6304 560.062Z" fill="white"/>
<path d="M76.2863 548.989C73.4806 550.534 72.876 553.517 74.9262 555.635C76.9765 557.753 80.9316 558.212 83.7373 556.667C86.543 555.121 87.1473 552.137 85.0971 550.019C83.0468 547.901 79.092 547.424 76.2863 548.989Z" fill="white"/>
<path d="M154.889 553.237L127.727 532.22L129.732 530.749L154.943 550.253L176.742 534.205L130.308 529.862L130.661 527.766L182.852 532.644L154.889 553.237Z" fill="white"/>
<path d="M124.445 534.993C122.018 533.121 122.072 530.098 124.553 528.269C127.033 526.44 131.039 526.483 133.465 528.355C135.891 530.228 135.837 533.25 133.357 535.08C130.876 536.909 126.871 536.866 124.445 534.993Z" fill="white"/>
<path d="M131.567 524.121C128.112 523.796 124.956 525.643 124.552 528.249C124.123 530.856 126.574 533.238 130.028 533.545C133.483 533.87 136.639 532.023 137.043 529.417C137.471 526.829 135.021 524.446 131.567 524.121Z" fill="white"/>
<path d="M299.799 815.733L159.84 558.041L383.296 767.232L317.399 815.754L321.404 815.758L387.076 767.406L149.992 545.45L296.77 815.73L299.799 815.733Z" fill="white"/>
<path d="M387.798 771.431L157.59 555.923L159.77 554.603L382.576 763.208L325.76 563.622L160.773 553.169L161.001 551.073L328.066 561.66L328.29 562.435L387.798 771.431Z" fill="white"/>
<path d="M160.668 556.871C157.188 556.659 154.613 554.351 154.916 551.726C155.195 549.101 158.251 547.159 161.731 547.39C165.21 547.602 167.786 549.909 167.482 552.535C167.204 555.16 164.147 557.102 160.668 556.871Z" fill="white"/>
<path d="M163.777 552.474C161.602 550.431 157.622 550.105 154.916 551.745C152.211 553.386 151.781 556.388 153.957 558.431C156.133 560.473 160.113 560.799 162.818 559.159C165.549 557.5 165.978 554.516 163.777 552.474Z" fill="white"/>
<path d="M180.672 534.569L130.308 529.862L130.661 527.766L178.922 532.281L202.054 490.093L130.288 526.613L128.738 524.855L208.194 484.434L180.672 534.569Z" fill="white"/>
<path d="M130.028 533.564C126.574 533.239 124.124 530.875 124.553 528.269C124.981 525.663 128.112 523.815 131.566 524.141C135.021 524.466 137.471 526.83 137.042 529.436C136.639 532.042 133.482 533.889 130.028 533.564Z" fill="white"/>
<path d="M126.238 521.66C123.357 523.129 122.602 526.075 124.528 528.268C126.478 530.443 130.382 531.014 133.288 529.563C136.169 528.093 136.923 525.148 134.973 522.954C133.048 520.761 129.118 520.19 126.238 521.66Z" fill="white"/>
<path d="M332.743 564.895L177.893 534.131L201.551 491.036L204.129 491.852L181.7 532.7L321.082 560.405L208.861 490.951L210.641 489.328L332.743 564.895Z" fill="white"/>
<path d="M196.897 489.841C198.227 487.406 201.908 486.258 205.136 487.263C208.339 488.268 209.888 491.046 208.559 493.481C207.229 495.898 203.547 497.064 200.319 496.059C197.091 495.054 195.567 492.276 196.897 489.841Z" fill="white"/>
<path d="M213.999 486.612C211.298 484.946 207.342 485.245 205.136 487.263C202.931 489.3 203.328 492.284 206.005 493.95C208.706 495.615 212.662 495.318 214.867 493.299C217.073 491.281 216.676 488.277 213.999 486.612Z" fill="white"/>
<path d="M367.453 553.982L326.611 563.831L326.036 563.471L208.861 490.951L210.115 489.819L211.043 488.555L367.453 553.982ZM327.215 561.47L360.445 553.463L217.921 493.833L327.215 561.47Z" fill="white"/>
<path d="M206.004 493.97C203.302 492.305 202.93 489.301 205.136 487.283C207.341 485.245 211.322 484.967 213.999 486.632C216.7 488.297 217.097 491.301 214.867 493.32C212.661 495.338 208.681 495.635 206.004 493.97Z" fill="white"/>
<path d="M213.7 485.422C210.647 484.153 206.816 484.979 205.136 487.281C203.456 489.584 204.554 492.475 207.607 493.744C210.659 495.013 214.49 494.187 216.17 491.884C217.825 489.582 216.727 486.691 213.7 485.422Z" fill="white"/>
<path d="M364.973 555.357L209.688 490.385L211.042 488.536L362.899 552.068L395.084 412.162L211.07 486.08L209.746 484.209L398.794 408.275L364.973 555.357Z" fill="white"/>
<path d="M207.582 493.726C204.529 492.457 203.431 489.565 205.111 487.263C206.791 484.961 210.622 484.134 213.675 485.403C216.727 486.672 217.826 489.564 216.146 491.866C214.465 494.187 210.634 495.014 207.582 493.726Z" fill="white"/>
<path d="M207.722 480.844C204.641 482.087 203.486 484.957 205.136 487.283C206.76 489.608 210.589 490.481 213.67 489.238C216.751 487.995 217.906 485.125 216.256 482.8C214.607 480.475 210.777 479.601 207.722 480.844Z" fill="white"/>
<path d="M875.233 16.9071L864.27 15.383L863.767 17.4601L875.231 19.0415L875.233 16.9071Z" fill="white"/>
<path d="M875.253 0.0400391L861.17 11.5641L863.221 13.0021L875.249 3.13771L875.253 0.0400391Z" fill="white"/>
<path d="M863.187 21.1421C859.758 20.6658 857.482 18.1887 858.111 15.6017C858.74 13.0148 862.022 11.2998 865.451 11.7761C868.88 12.2524 871.155 14.7295 870.526 17.3164C869.897 19.9034 866.616 21.6184 863.187 21.1421Z" fill="white"/>
<path d="M857.769 8.8772C855.413 10.801 855.585 13.824 858.136 15.6025C860.687 17.3811 864.693 17.253 867.049 15.3292C869.404 13.4054 869.258 10.383 866.681 8.60443C864.105 6.82586 860.124 6.95339 857.769 8.8772Z" fill="white"/>
<path d="M40.6966 815.425L34.095 809.26L34.091 812.603L37.1168 815.421L40.6966 815.425Z" fill="white"/>
<path d="M615.419 698.414L532.214 733.259L514.424 641.119L615.752 691.936L614.198 693.69L518.074 645.486L534.396 729.937L614.044 696.58L615.419 698.414Z" fill="white"/>
<path d="M618.21 688.709C621.112 690.167 621.91 693.114 619.98 695.303C618.049 697.492 614.143 698.092 611.241 696.634C608.339 695.176 607.541 692.228 609.471 690.04C611.377 687.851 615.308 687.27 618.21 688.709Z" fill="white"/>
<path d="M617.519 701.779C620.549 700.498 621.654 697.609 619.955 695.322C618.255 693.034 614.426 692.199 611.395 693.479C608.364 694.76 607.26 697.649 608.959 699.936C610.634 702.224 614.488 703.041 617.519 701.779Z" fill="white"/>
<path d="M771.487 589.236L515.773 644.501L515.172 643.972L446.277 581.803L448.407 580.446L516.727 642.103L754.587 590.689L449.409 578.955L449.537 576.839L771.487 589.236Z" fill="white"/>
<path d="M449.48 582.656C446.001 582.52 443.325 580.288 443.503 577.663C443.681 575.038 446.638 573.02 450.118 573.156C453.597 573.293 456.273 575.525 456.095 578.15C455.916 580.775 452.96 582.793 449.48 582.656Z" fill="white"/>
<path d="M452.389 578.259C450.163 576.235 446.184 575.966 443.503 577.663C440.822 579.341 440.468 582.343 442.719 584.367C444.944 586.391 448.924 586.66 451.605 584.963C454.261 583.285 454.615 580.282 452.389 578.259Z" fill="white"/>
<path d="M746.053 630.402L619.977 696.588L619.177 696.19L512.195 642.533L744.055 626.319L744.328 628.416L520.329 644.073L619.956 694.038L744.453 628.662L746.053 630.402Z" fill="white"/>
<path d="M743.308 622.653C746.763 622.412 749.84 624.342 750.163 626.949C750.485 629.556 747.929 631.876 744.474 632.118C741.019 632.359 737.942 630.429 737.619 627.822C737.272 625.215 739.828 622.895 743.308 622.653Z" fill="white"/>
<path d="M748.579 633.577C751.434 632.069 752.139 629.104 750.139 626.949C748.139 624.793 744.209 624.259 741.353 625.767C738.497 627.275 737.793 630.239 739.793 632.395C741.793 634.532 745.723 635.065 748.579 633.577Z" fill="white"/>
<path d="M753.022 622.853L750.319 622.321L761.07 591.489L530.997 641.213L744.055 626.318L744.328 628.415L516.373 644.35L515.875 642.291L765.004 588.434L753.022 622.853Z" fill="white"/>
<path d="M757.853 623.559C756.974 626.107 753.516 627.614 750.163 626.949C746.784 626.284 744.785 623.675 745.664 621.145C746.543 618.596 750 617.089 753.354 617.754C756.733 618.42 758.732 621.029 757.853 623.559Z" fill="white"/>
<path d="M744.474 632.118C747.929 631.876 750.485 629.556 750.163 626.949C749.84 624.342 746.763 622.412 743.308 622.653C739.853 622.895 737.297 625.215 737.619 627.822C737.917 630.448 740.994 632.359 744.474 632.118Z" fill="white"/>
<path d="M528.032 733.972L382.868 768.989L448.315 635.752L531.094 727.27L528.79 728.458L449.061 640.305L387.503 765.651L527.183 731.969L528.032 733.972Z" fill="white"/>
<path d="M534.978 724.989C536.928 727.163 536.199 730.128 533.318 731.598C530.437 733.068 526.533 732.515 524.557 730.341C522.607 728.166 523.337 725.202 526.218 723.732C529.073 722.262 533.003 722.833 534.978 724.989Z" fill="white"/>
<path d="M529.23 737.581C532.535 736.773 534.366 734.111 533.318 731.598C532.244 729.103 528.716 727.721 525.385 728.51C522.08 729.318 520.249 731.98 521.298 734.493C522.371 737.006 525.924 738.389 529.23 737.581Z" fill="white"/>
<path d="M388.582 763.441L385.954 762.72L447.035 638.356L329.111 565.382L385.304 762.682L382.549 763.113L324.712 559.918L450.366 637.68L388.582 763.441Z" fill="white"/>
<path d="M390.037 761.667C390.76 764.237 388.604 766.765 385.198 767.309C381.793 767.853 378.44 766.225 377.718 763.655C376.995 761.085 379.151 758.557 382.556 758.013C385.936 757.469 389.289 759.098 390.037 761.667Z" fill="white"/>
<path d="M381.475 761.203C380.271 763.658 381.92 766.399 385.198 767.309C388.452 768.22 392.083 766.977 393.288 764.504C394.492 762.031 392.818 759.309 389.565 758.399C386.311 757.488 382.68 758.749 381.475 761.203Z" fill="white"/>
<path d="M533.825 726.971L531.071 727.269L528.791 728.457L445.862 636.73L517.478 642.331L517.627 643.143L533.825 726.971ZM451.542 639.306L531.046 727.232L515.022 644.255L451.542 639.306Z" fill="white"/>
<path d="M538.631 726.221C539.129 728.828 536.748 731.243 533.293 731.617C529.838 731.99 526.66 730.192 526.138 727.585C525.64 724.978 528.021 722.582 531.476 722.189C534.932 721.816 538.134 723.614 538.631 726.221Z" fill="white"/>
<path d="M524.557 730.36C526.533 732.534 530.437 733.087 533.318 731.617C536.199 730.147 536.928 727.182 534.978 725.008C533.028 722.833 529.098 722.281 526.218 723.751C523.337 725.221 522.582 728.185 524.557 730.36Z" fill="white"/>
<path d="M456.968 644.507L330.663 566.329L332.418 564.706L440.436 631.549L363.422 554.94L333.046 562.27L332.198 560.267L364.451 552.486L456.968 644.507Z" fill="white"/>
<path d="M334.843 565.728C331.538 566.536 327.985 565.153 326.911 562.64C325.838 560.145 327.668 557.465 330.999 556.657C334.304 555.849 337.858 557.232 338.931 559.745C339.98 562.259 338.149 564.92 334.843 565.728Z" fill="white"/>
<path d="M335.775 561.99C333.073 560.324 329.117 560.621 326.911 562.64C324.706 564.677 325.103 567.662 327.78 569.328C330.482 570.993 334.437 570.696 336.643 568.677C338.873 566.64 338.476 563.655 335.775 561.99Z" fill="white"/>
<path d="M450.387 641.458L366.447 557.947L368.676 556.684L446.99 634.598L442.151 578.399L368.977 556.363L370.031 554.419L444.831 576.929L444.905 577.59L450.387 641.458Z" fill="white"/>
<path d="M367.47 559.894C364.242 558.927 362.668 556.148 363.948 553.713C365.228 551.278 368.909 550.093 372.137 551.06C375.366 552.027 376.939 554.805 375.66 557.241C374.355 559.676 370.699 560.861 367.47 559.894Z" fill="white"/>
<path d="M372.784 554.63C370.684 552.531 366.729 552.13 363.948 553.713C361.167 555.297 360.638 558.28 362.738 560.379C364.839 562.478 368.794 562.879 371.574 561.296C374.33 559.713 374.884 556.729 372.784 554.63Z" fill="white"/>
<path d="M510.14 643.891L447.385 638.981L441.829 574.508L513.475 639.154L511.346 640.511L445.177 580.821L450.016 637.057L510.443 641.776L510.14 643.891Z" fill="white"/>
<path d="M517.033 636.607C519.259 638.631 518.905 641.615 516.249 643.312C513.569 644.99 509.614 644.721 507.363 642.716C505.137 640.692 505.491 637.708 508.147 636.011C510.828 634.315 514.808 634.584 517.033 636.607Z" fill="white"/>
<path d="M509.335 647.535C512.789 647.804 515.896 645.9 516.249 643.293C516.603 640.687 514.077 638.342 510.623 638.073C507.168 637.805 504.062 639.709 503.708 642.315C503.355 644.94 505.88 647.267 509.335 647.535Z" fill="white"/>
<path d="M154.378 926.933L14.4188 669.241L237.875 878.432L171.977 926.953L175.983 926.958L241.655 878.606L4.57033 656.65L151.349 926.929L154.378 926.933Z" fill="white"/>
</g>
</g>
</svg>
