<svg width="310" height="388" viewBox="0 0 310 388" fill="none" xmlns="http://www.w3.org/2000/svg">
<path d="M294.485 308.018L294.555 299.818L192.505 275.018L14.805 334.478V343.018C14.7975 343.428 14.9356 343.829 15.195 344.148C15.506 344.512 15.9105 344.785 16.365 344.938L116.265 386.168C117.082 386.486 117.935 386.704 118.805 386.818C120.746 387.094 122.72 387.044 124.645 386.668C125.526 386.504 126.385 386.239 127.205 385.878L293.295 310.018C293.64 309.896 293.935 309.664 294.135 309.358C294.408 308.967 294.532 308.492 294.485 308.018Z" fill="white"/>
<path opacity="0.2" d="M294.134 309.378C294.404 308.99 294.528 308.518 294.484 308.048L294.554 299.848L192.504 275.018L123.744 298.018V386.778C124.044 386.778 124.354 386.698 124.644 386.638C125.525 386.474 126.384 386.209 127.204 385.848L293.294 310.018C293.636 309.901 293.931 309.677 294.134 309.378Z" fill="black"/>
<path opacity="0.2" d="M120.994 387.147V373.377H117.514V386.717C118.643 387.046 119.818 387.191 120.994 387.147V387.147Z" fill="black"/>
<path d="M294.485 308.018L294.555 299.818L192.505 275.018L14.805 334.478V343.018C14.7975 343.428 14.9356 343.829 15.195 344.148C15.506 344.512 15.9105 344.785 16.365 344.938L116.265 386.168C117.082 386.486 117.935 386.704 118.805 386.818C120.746 387.094 122.72 387.044 124.645 386.668C125.526 386.504 126.385 386.239 127.205 385.878L293.295 310.018C293.64 309.896 293.935 309.664 294.135 309.358C294.408 308.967 294.532 308.492 294.485 308.018Z" stroke="#263238" stroke-miterlimit="10"/>
<path d="M242.274 289.628L229.204 286.318C229.011 286.267 228.814 286.234 228.614 286.218C228.404 286.218 228.184 286.218 227.974 286.218C227.774 286.224 227.573 286.24 227.374 286.268C227.208 286.294 227.044 286.334 226.884 286.388C226.774 286.421 226.674 286.483 226.594 286.568C226.579 286.597 226.57 286.63 226.57 286.663C226.57 286.696 226.579 286.729 226.594 286.758C226.641 286.842 226.715 286.909 226.804 286.948C226.942 287.023 227.09 287.077 227.244 287.108L240.314 290.448C240.516 290.492 240.719 290.526 240.924 290.548H241.574C241.779 290.539 241.982 290.519 242.184 290.488C242.351 290.464 242.515 290.424 242.674 290.368C242.78 290.329 242.876 290.268 242.954 290.188C242.973 290.158 242.983 290.123 242.983 290.088C242.983 290.052 242.973 290.018 242.954 289.988C242.901 289.902 242.825 289.833 242.734 289.788C242.59 289.719 242.439 289.665 242.284 289.628" fill="white"/>
<path d="M280.565 300.918L258.515 295.298H254.905C254.505 295.298 254.115 295.298 253.725 295.298C253.335 295.298 252.945 295.248 252.575 295.198C252.205 295.148 251.825 295.098 251.465 295.038C251.105 294.978 250.775 294.898 250.465 294.818L212.015 284.948L211.235 284.708C210.995 284.618 210.785 284.528 210.595 284.438C210.427 284.35 210.266 284.25 210.115 284.138C210 284.05 209.898 283.945 209.815 283.828L209.045 282.708L189.305 277.708L38.9746 329.518L133.855 365.848L280.565 300.918Z" fill="#407BFF" stroke="white" stroke-width="3" stroke-miterlimit="10"/>
<path d="M294.845 299.148C294.598 298.845 294.282 298.605 293.925 298.448C293.38 298.182 292.806 297.981 292.215 297.848L195.925 273.848C195.319 273.702 194.704 273.599 194.085 273.538C193.42 273.479 192.752 273.456 192.085 273.468C191.435 273.476 190.787 273.526 190.145 273.618C189.588 273.692 189.039 273.816 188.505 273.988L17.1046 332.128C16.4721 332.328 15.8699 332.614 15.3146 332.978C14.9383 333.195 14.6381 333.524 14.4546 333.918C14.3902 334.068 14.3674 334.232 14.3885 334.394C14.4096 334.556 14.4739 334.709 14.5746 334.838C14.8799 335.206 15.2814 335.483 15.7346 335.638L116.275 376.348C117.091 376.67 117.944 376.891 118.815 377.008C120.756 377.285 122.73 377.234 124.655 376.858C125.535 376.694 126.394 376.429 127.215 376.068L294.085 300.508C294.432 300.38 294.729 300.145 294.935 299.838C294.983 299.725 295 299.602 294.985 299.48C294.969 299.359 294.92 299.244 294.845 299.148ZM133.845 365.848L38.9745 329.518L189.295 277.628L209.035 282.628L209.805 283.748C209.888 283.866 209.99 283.97 210.105 284.058C210.256 284.17 210.417 284.27 210.585 284.358C210.775 284.448 210.985 284.538 211.225 284.628L212.005 284.868L250.435 294.778C250.755 294.858 251.095 294.938 251.435 294.998C251.775 295.058 252.165 295.118 252.545 295.158C252.925 295.198 253.305 295.238 253.695 295.258C254.085 295.278 254.475 295.258 254.875 295.258H258.485L280.535 300.878L133.845 365.848ZM226.585 286.538C226.664 286.453 226.764 286.391 226.875 286.358C227.034 286.304 227.198 286.264 227.365 286.238C227.564 286.21 227.764 286.194 227.965 286.188C228.175 286.188 228.395 286.188 228.605 286.188C228.804 286.204 229.001 286.237 229.195 286.288L242.265 289.598C242.42 289.635 242.571 289.689 242.715 289.758C242.805 289.802 242.881 289.872 242.935 289.958C242.953 289.988 242.963 290.022 242.963 290.058C242.963 290.093 242.953 290.128 242.935 290.158C242.856 290.238 242.76 290.299 242.655 290.338C242.496 290.394 242.332 290.434 242.165 290.458C241.962 290.489 241.759 290.509 241.555 290.518H240.905C240.7 290.496 240.496 290.462 240.295 290.418L227.225 287.078C227.071 287.047 226.922 286.993 226.785 286.918C226.696 286.879 226.622 286.812 226.575 286.728C226.562 286.697 226.557 286.663 226.56 286.63C226.564 286.597 226.576 286.565 226.595 286.538H226.585ZM81.1046 349.678C80.8701 349.866 80.6067 350.014 80.3246 350.118C79.9586 350.254 79.5801 350.355 79.1945 350.418C78.7823 350.496 78.3641 350.54 77.9445 350.548C77.5369 350.559 77.1291 350.539 76.7245 350.488C76.3828 350.437 76.0475 350.35 75.7245 350.228C75.4806 350.14 75.2588 350 75.0746 349.818C75.0153 349.756 74.9703 349.682 74.9427 349.6C74.9151 349.519 74.9055 349.433 74.9146 349.348C74.9638 349.153 75.0808 348.983 75.2446 348.868C75.4764 348.676 75.7405 348.527 76.0246 348.428C76.3906 348.291 76.769 348.191 77.1546 348.128C77.5643 348.057 77.9788 348.017 78.3946 348.008C78.7988 347.997 79.2033 348.017 79.6046 348.068C79.9458 348.115 80.281 348.199 80.6046 348.318C80.8489 348.4 81.0712 348.537 81.2546 348.718C81.3187 348.777 81.3676 348.85 81.3972 348.932C81.4268 349.014 81.4362 349.102 81.4246 349.188C81.3818 349.385 81.2679 349.559 81.1046 349.678V349.678Z" fill="#263238"/>
<path d="M80.5937 348.318C80.2702 348.199 79.935 348.115 79.5937 348.068C79.1925 348.017 78.788 347.997 78.3837 348.008C77.968 348.017 77.5535 348.057 77.1437 348.128C76.7582 348.191 76.3797 348.291 76.0137 348.428C75.7297 348.527 75.4656 348.676 75.2337 348.868C75.07 348.983 74.9529 349.153 74.9037 349.348C74.8946 349.433 74.9042 349.519 74.9319 349.6C74.9595 349.681 75.0045 349.756 75.0637 349.818C75.2479 350 75.4698 350.14 75.7137 350.228C76.0367 350.35 76.372 350.437 76.7137 350.488C77.1183 350.539 77.5261 350.559 77.9337 350.548C78.3533 350.54 78.7714 350.496 79.1837 350.418C79.5692 350.355 79.9477 350.254 80.3137 350.118C80.5959 350.014 80.8593 349.866 81.0937 349.678C81.2533 349.558 81.3635 349.383 81.4037 349.188C81.4153 349.101 81.406 349.014 81.3764 348.932C81.3468 348.85 81.2978 348.777 81.2337 348.718C81.0504 348.537 80.828 348.4 80.5837 348.318" fill="white"/>
<path d="M47.2227 304.958L50.0827 309.798" stroke="#263238" stroke-miterlimit="10"/>
<path d="M5.20312 233.887L43.9931 299.487" stroke="#263238" stroke-miterlimit="10"/>
<path d="M80.0332 290.938L81.6632 294.837" stroke="#263238" stroke-miterlimit="10"/>
<path d="M68.9238 264.357L78.2138 286.577" stroke="#263238" stroke-miterlimit="10"/>
<path d="M262.553 230.208L242.113 280.428" stroke="#263238" stroke-miterlimit="10"/>
<path d="M267.602 217.817L265.072 224.007" stroke="#263238" stroke-miterlimit="10"/>
<path d="M278.942 279.397L274.482 284.307" stroke="#263238" stroke-miterlimit="10"/>
<path d="M307.722 247.737L283.402 274.487" stroke="#263238" stroke-miterlimit="10"/>
<path d="M62.2734 297.607L78.8934 329.737" stroke="#263238" stroke-miterlimit="10"/>
<path d="M266.173 277.657L247.883 302.587" stroke="#263238" stroke-miterlimit="10"/>
<path d="M149.264 277.657L153.694 299.817" stroke="#263238" stroke-miterlimit="10"/>
<path d="M68.9132 77.7678C74.9221 77.7678 79.7932 72.8967 79.7932 66.8878C79.7932 60.879 74.9221 56.0078 68.9132 56.0078C62.9043 56.0078 58.0332 60.879 58.0332 66.8878C58.0332 72.8967 62.9043 77.7678 68.9132 77.7678Z" fill="white" stroke="white" stroke-width="0.5" stroke-miterlimit="10"/>
<path d="M72.5238 66.1479H65.4338C64.7681 66.1479 64.1297 66.4124 63.659 66.8831C63.1883 67.3538 62.9238 67.9923 62.9238 68.658V74.658C64.6577 76.0087 66.7967 76.7346 68.9945 76.7183C71.1923 76.702 73.3203 75.9443 75.0338 74.568V68.708C75.0405 68.3742 74.9805 68.0424 74.8573 67.7321C74.7341 67.4217 74.5503 67.1391 74.3166 66.9007C74.0828 66.6623 73.8039 66.4729 73.496 66.3437C73.1882 66.2144 72.8577 66.1479 72.5238 66.1479V66.1479Z" fill="#407BFF"/>
<path d="M68.8541 65.0579C70.8479 65.0579 72.4641 63.4416 72.4641 61.4479C72.4641 59.4541 70.8479 57.8379 68.8541 57.8379C66.8604 57.8379 65.2441 59.4541 65.2441 61.4479C65.2441 63.4416 66.8604 65.0579 68.8541 65.0579Z" fill="#407BFF"/>
<path d="M99.5652 265.057C101.752 259.46 98.9873 253.15 93.3904 250.964C87.7935 248.777 81.4838 251.542 79.2971 257.138C77.1105 262.735 79.875 269.045 85.4719 271.232C91.0688 273.418 97.3786 270.654 99.5652 265.057Z" fill="white" stroke="white" stroke-width="0.5" stroke-miterlimit="10"/>
<path d="M93.0434 260.368H85.9434C85.2803 260.368 84.6444 260.631 84.1756 261.1C83.7068 261.569 83.4434 262.205 83.4434 262.868V268.818C85.1756 270.168 87.3129 270.893 89.509 270.877C91.7051 270.86 93.8314 270.103 95.5434 268.728V262.868C95.5434 262.205 95.28 261.569 94.8111 261.1C94.3423 260.631 93.7064 260.368 93.0434 260.368Z" fill="#407BFF"/>
<path d="M89.3737 259.268C90.0877 259.268 90.7856 259.056 91.3793 258.659C91.9729 258.263 92.4356 257.699 92.7089 257.039C92.9821 256.38 93.0536 255.654 92.9143 254.954C92.775 254.253 92.4312 253.61 91.9263 253.105C91.4215 252.6 90.7782 252.257 90.0779 252.117C89.3777 251.978 88.6518 252.049 87.9922 252.323C87.3325 252.596 86.7687 253.059 86.3721 253.652C85.9754 254.246 85.7637 254.944 85.7637 255.658C85.7637 256.132 85.857 256.601 86.0385 257.039C86.2199 257.477 86.4858 257.875 86.821 258.211C87.1562 258.546 87.5542 258.812 87.9922 258.993C88.4302 259.174 88.8996 259.268 89.3737 259.268V259.268Z" fill="#407BFF"/>
<path d="M231.524 231.524C273.962 189.086 273.962 120.28 231.524 77.8413C189.086 35.403 120.28 35.4031 77.8413 77.8413C35.403 120.28 35.403 189.086 77.8413 231.524C120.28 273.962 189.086 273.962 231.524 231.524Z" fill="white"/>
<path opacity="0.18" d="M231.524 231.524C273.962 189.086 273.962 120.28 231.524 77.8413C189.086 35.403 120.28 35.4031 77.8413 77.8413C35.403 120.28 35.403 189.086 77.8413 231.524C120.28 273.962 189.086 273.962 231.524 231.524Z" fill="black"/>
<path opacity="0.86" d="M154.684 201.108C131.292 201.106 108.525 193.559 89.764 179.588C71.0029 165.617 57.2485 145.968 50.5437 123.558C45.7079 139.777 44.7275 156.902 47.6807 173.568C50.6339 190.233 57.439 205.979 67.5538 219.549C77.6685 233.119 90.8132 244.14 105.94 251.731C121.067 259.323 137.758 263.276 154.684 263.276C171.609 263.276 188.3 259.323 203.427 251.731C218.554 244.14 231.699 233.119 241.814 219.549C251.928 205.979 258.733 190.233 261.687 173.568C264.64 156.902 263.66 139.777 258.824 123.558C252.117 145.967 238.363 165.616 219.602 179.586C200.841 193.557 178.075 201.104 154.684 201.108V201.108Z" fill="white"/>
<path d="M150.773 104.378L161.093 109.018L163.923 113.658L168.573 115.468L169.083 120.368L167.283 123.208L163.673 123.978L155.933 120.878V119.878L160.313 118.078L158.763 112.658L151.763 110.078L148.673 105.958L150.773 104.378ZM215.773 223.528L207.523 220.178L197.433 216.568H189.433L181.983 215.018L173.723 216.828L169.083 217.078H166.243L160.833 220.178L155.673 222.238L148.673 217.858L150.473 210.638L146.093 208.828H140.933L140.163 206.508L140.673 201.868L138.873 199.288L135.263 199.798L134.263 202.378L129.883 202.638L126.013 198.018L124.433 191.808L128.303 184.588L135.783 185.098L137.843 186.908H140.943L144.813 184.588L148.163 185.588L152.803 193.588L154.613 193.338L154.093 187.398L152.553 184.308L153.063 179.408L162.603 175.278L163.893 165.738L168.023 162.388L171.373 156.458L173.953 155.938L179.883 152.068L180.143 150.008L176.013 150.268L175.243 148.198H172.433L168.053 149.198L170.113 145.848L179.113 143.268L181.173 140.948L184.783 146.618L187.113 148.948L190.723 147.948L189.173 144.598L183.753 140.728L177.563 133.728L171.113 129.338L164.923 128.338L161.833 125.248L157.703 124.248L157.193 125.248L156.673 132.728L157.673 135.308L155.433 143.578L150.273 139.448L151.053 135.838L145.633 133.258L143.313 130.428L144.603 123.978L152.083 118.558L152.603 112.368L149.763 112.628L147.953 110.308L147.183 106.438L145.373 106.178L144.373 110.308L141.543 110.828L140.253 101.828L138.183 100.538L134.573 98.9878L130.433 101.018L135.583 105.928L136.583 110.308L127.303 103.308L120.853 96.3078L120.343 89.3078L113.633 87.2478L108.433 90.7078C107.183 91.4668 105.891 92.1545 104.563 92.7678C102.527 93.2531 100.459 93.5873 98.3734 93.7678L97.3734 98.1578L91.4434 98.4178L91.9634 101.248L101.503 102.798L106.403 108.218V117.218L103.563 125.218L104.083 133.728L96.8634 146.368L95.3134 165.188L97.6334 176.028L100.983 184.278L104.853 184.798L103.563 180.668L101.503 177.568L100.213 171.898L102.533 171.378L106.143 180.668L108.733 189.018V195.728L113.633 201.658L122.433 208.018L135.843 211.628L139.973 215.498L143.063 219.618L147.703 222.458L153.383 224.008L159.053 223.748C159.053 223.748 158.793 226.328 158.793 227.618C158.793 228.908 155.183 233.288 155.183 233.288L152.353 238.448L154.413 244.118L160.083 246.448L168.083 254.698L171.693 256.248V260.108L172.143 261.918C192.207 258.673 210.951 249.846 226.233 236.448L226.373 234.578L233.373 221.938L230.023 219.618L215.773 223.528ZM242.603 121.658L239.763 116.758L236.153 111.078L235.153 103.348L239.793 104.118L240.053 101.538L236.693 101.278L239.533 99.9878L242.633 98.1878V95.6078L239.533 91.4778L238.873 85.9278C223.877 67.5827 203.3 54.6363 180.272 49.057C157.244 43.4777 133.023 45.5707 111.293 55.0178L117.243 59.2278L113.633 63.8778L108.733 64.8778L108.213 71.8778L106.153 72.6478L103.573 75.4878L103.833 80.1278L108.213 80.6478L106.433 85.0178H110.813L118.293 75.4778L119.073 71.3578L126.293 70.8378L128.093 67.7378L135.573 66.9678L136.353 62.5878L141.763 62.3278C141.763 62.3278 145.633 60.2678 146.413 60.2678C147.902 60.5887 149.366 61.0164 150.793 61.5478L154.663 64.6478H160.073L164.723 61.8078L170.653 62.3278C171.507 62.8826 172.481 63.2254 173.493 63.3278C174.783 63.3278 178.643 61.5178 178.643 61.5178L186.123 66.1678L189.223 68.4878V72.3578L193.093 72.8678L194.383 70.5478L197.733 72.0978L197.473 74.1578L189.733 76.2278L194.123 81.8978L203.403 87.0578L207.273 92.2178L212.953 92.7278L214.243 90.1478L216.303 89.6378L209.593 84.4778L205.433 84.0178L208.783 83.0178L205.683 78.6378L210.073 78.3778L215.743 81.4678L217.033 87.6578L219.873 91.0178L222.193 98.4978L227.863 102.618V111.128L233.803 114.998L233.543 117.838L232.763 121.188L234.313 125.828L234.833 128.158L239.213 128.928L241.283 124.538L242.603 121.658ZM245.953 95.6578V97.1378L244.663 101.258L245.433 104.868L248.273 105.868V110.768L245.173 109.478L244.433 123.458L241.343 129.138L243.403 136.358L246.753 139.448V153.378L250.103 164.208L253.723 172.468L259.653 174.008L261.713 168.848L262.553 168.198C263.111 163.716 263.392 159.204 263.393 154.688C263.414 133.743 257.352 113.243 245.943 95.6778L245.953 95.6578ZM186.363 94.0178L169.363 86.5378L161.883 86.7978L160.073 91.6978L156.983 88.3478L151.313 89.6378L150.793 98.1478L155.433 101.498L158.783 96.5978L162.653 100.468L170.653 107.468L172.203 114.948L178.903 123.458L189.733 121.658L189.483 117.788L187.163 113.398L186.643 103.088L189.223 98.6978L186.363 94.0178ZM200.293 99.6978L196.423 98.6978L193.073 101.538L194.873 109.018H198.233L200.293 99.6978ZM224.293 104.598L215.513 100.018L213.703 96.9278L211.643 97.6978L213.443 102.858L214.993 109.568L218.863 111.108L219.633 110.108L217.313 106.238L224.023 108.818L224.293 104.598ZM148.983 197.698L147.983 198.698L155.723 201.018L158.813 204.628L163.723 205.148L165.523 202.308L159.593 201.308L148.983 197.698ZM171.983 202.598L166.563 204.148L167.343 206.208H174.043L175.333 204.148L173.013 204.408L171.983 202.598Z" fill="#407BFF"/>
<path opacity="0.65" d="M154.684 201.108C131.292 201.106 108.525 193.559 89.764 179.588C71.0029 165.617 57.2485 145.968 50.5437 123.558C45.7079 139.777 44.7275 156.902 47.6807 173.568C50.6339 190.233 57.439 205.979 67.5538 219.549C77.6685 233.119 90.8132 244.14 105.94 251.731C121.067 259.323 137.758 263.276 154.684 263.276C171.609 263.276 188.3 259.323 203.427 251.731C218.554 244.14 231.699 233.119 241.814 219.549C251.928 205.979 258.733 190.233 261.687 173.568C264.64 156.902 263.66 139.777 258.824 123.558C252.117 145.967 238.363 165.616 219.602 179.586C200.841 193.557 178.075 201.104 154.684 201.108V201.108Z" fill="white"/>
<path d="M150.773 104.378L161.093 109.018L163.923 113.658L168.573 115.468L169.083 120.368L167.283 123.208L163.673 123.978L155.933 120.878V119.878L160.313 118.078L158.763 112.658L151.763 110.078L148.673 105.958L150.773 104.378ZM215.773 223.528L207.523 220.178L197.433 216.568H189.433L181.983 215.018L173.723 216.828L169.083 217.078H166.243L160.833 220.178L155.673 222.238L148.673 217.858L150.473 210.638L146.093 208.828H140.933L140.163 206.508L140.673 201.868L138.873 199.288L135.263 199.798L134.263 202.378L129.883 202.638L126.013 198.018L124.433 191.808L128.303 184.588L135.783 185.098L137.843 186.908H140.943L144.813 184.588L148.163 185.588L152.803 193.588L154.613 193.338L154.093 187.398L152.553 184.308L153.063 179.408L162.603 175.278L163.893 165.738L168.023 162.388L171.373 156.458L173.953 155.938L179.883 152.068L180.143 150.008L176.013 150.268L175.243 148.198H172.433L168.053 149.198L170.113 145.848L179.113 143.268L181.173 140.948L184.783 146.618L187.113 148.948L190.723 147.948L189.173 144.598L183.753 140.728L177.563 133.728L171.113 129.338L164.923 128.338L161.833 125.248L157.703 124.248L157.193 125.248L156.673 132.728L157.673 135.308L155.433 143.578L150.273 139.448L151.053 135.838L145.633 133.258L143.313 130.428L144.603 123.978L152.083 118.558L152.603 112.368L149.763 112.628L147.953 110.308L147.183 106.438L145.373 106.178L144.373 110.308L141.543 110.828L140.253 101.828L138.183 100.538L134.573 98.9878L130.433 101.018L135.583 105.928L136.583 110.308L127.303 103.308L120.853 96.3078L120.343 89.3078L113.633 87.2478L108.433 90.7078C107.183 91.4668 105.891 92.1545 104.563 92.7678C102.527 93.2531 100.459 93.5873 98.3734 93.7678L97.3734 98.1578L91.4434 98.4178L91.9634 101.248L101.503 102.798L106.403 108.218V117.218L103.563 125.218L104.083 133.728L96.8634 146.368L95.3134 165.188L97.6334 176.028L100.983 184.278L104.853 184.798L103.563 180.668L101.503 177.568L100.213 171.898L102.533 171.378L106.143 180.668L108.733 189.018V195.728L113.633 201.658L122.433 208.018L135.843 211.628L139.973 215.498L143.063 219.618L147.703 222.458L153.383 224.008L159.053 223.748C159.053 223.748 158.793 226.328 158.793 227.618C158.793 228.908 155.183 233.288 155.183 233.288L152.353 238.448L154.413 244.118L160.083 246.448L168.083 254.698L171.693 256.248V260.108L172.143 261.918C192.207 258.673 210.951 249.846 226.233 236.448L226.373 234.578L233.373 221.938L230.023 219.618L215.773 223.528ZM242.603 121.658L239.763 116.758L236.153 111.078L235.153 103.348L239.793 104.118L240.053 101.538L236.693 101.278L239.533 99.9878L242.633 98.1878V95.6078L239.533 91.4778L238.873 85.9278C223.877 67.5827 203.3 54.6363 180.272 49.057C157.244 43.4777 133.023 45.5707 111.293 55.0178L117.243 59.2278L113.633 63.8778L108.733 64.8778L108.213 71.8778L106.153 72.6478L103.573 75.4878L103.833 80.1278L108.213 80.6478L106.433 85.0178H110.813L118.293 75.4778L119.073 71.3578L126.293 70.8378L128.093 67.7378L135.573 66.9678L136.353 62.5878L141.763 62.3278C141.763 62.3278 145.633 60.2678 146.413 60.2678C147.902 60.5887 149.366 61.0164 150.793 61.5478L154.663 64.6478H160.073L164.723 61.8078L170.653 62.3278C171.507 62.8826 172.481 63.2254 173.493 63.3278C174.783 63.3278 178.643 61.5178 178.643 61.5178L186.123 66.1678L189.223 68.4878V72.3578L193.093 72.8678L194.383 70.5478L197.733 72.0978L197.473 74.1578L189.733 76.2278L194.123 81.8978L203.403 87.0578L207.273 92.2178L212.953 92.7278L214.243 90.1478L216.303 89.6378L209.593 84.4778L205.433 84.0178L208.783 83.0178L205.683 78.6378L210.073 78.3778L215.743 81.4678L217.033 87.6578L219.873 91.0178L222.193 98.4978L227.863 102.618V111.128L233.803 114.998L233.543 117.838L232.763 121.188L234.313 125.828L234.833 128.158L239.213 128.928L241.283 124.538L242.603 121.658ZM245.953 95.6578V97.1378L244.663 101.258L245.433 104.868L248.273 105.868V110.768L245.173 109.478L244.433 123.458L241.343 129.138L243.403 136.358L246.753 139.448V153.378L250.103 164.208L253.723 172.468L259.653 174.008L261.713 168.848L262.553 168.198C263.111 163.716 263.392 159.204 263.393 154.688C263.414 133.743 257.352 113.243 245.943 95.6778L245.953 95.6578ZM186.363 94.0178L169.363 86.5378L161.883 86.7978L160.073 91.6978L156.983 88.3478L151.313 89.6378L150.793 98.1478L155.433 101.498L158.783 96.5978L162.653 100.468L170.653 107.468L172.203 114.948L178.903 123.458L189.733 121.658L189.483 117.788L187.163 113.398L186.643 103.088L189.223 98.6978L186.363 94.0178ZM200.293 99.6978L196.423 98.6978L193.073 101.538L194.873 109.018H198.233L200.293 99.6978ZM224.293 104.598L215.513 100.018L213.703 96.9278L211.643 97.6978L213.443 102.858L214.993 109.568L218.863 111.108L219.633 110.108L217.313 106.238L224.023 108.818L224.293 104.598ZM148.983 197.698L147.983 198.698L155.723 201.018L158.813 204.628L163.723 205.148L165.523 202.308L159.593 201.308L148.983 197.698ZM171.983 202.598L166.563 204.148L167.343 206.208H174.043L175.333 204.148L173.013 204.408L171.983 202.598Z" stroke="#263238" stroke-miterlimit="10"/>
<path d="M231.524 231.524C273.962 189.086 273.962 120.28 231.524 77.8413C189.086 35.403 120.28 35.4031 77.8413 77.8413C35.403 120.28 35.403 189.086 77.8413 231.524C120.28 273.962 189.086 273.962 231.524 231.524Z" stroke="#263238" stroke-miterlimit="10"/>
<path d="M290.818 110.336C296.749 109.37 300.774 103.779 299.808 97.8482C298.842 91.9175 293.251 87.8927 287.321 88.8585C281.39 89.8244 277.365 95.4152 278.331 101.346C279.297 107.277 284.888 111.301 290.818 110.336Z" fill="white" stroke="white" stroke-width="0.5" stroke-miterlimit="10"/>
<path d="M292.674 98.8677H285.574C285.245 98.8677 284.919 98.9327 284.615 99.0589C284.311 99.1852 284.035 99.3702 283.803 99.6034C283.571 99.8366 283.387 100.113 283.262 100.418C283.137 100.722 283.073 101.049 283.074 101.378V107.328C284.807 108.678 286.944 109.403 289.14 109.387C291.336 109.37 293.462 108.613 295.174 107.238V101.378C295.176 101.049 295.112 100.722 294.987 100.418C294.862 100.113 294.678 99.8366 294.446 99.6034C294.213 99.3702 293.937 99.1852 293.633 99.0589C293.329 98.9327 293.003 98.8677 292.674 98.8677V98.8677Z" fill="#407BFF"/>
<path d="M289.005 97.7679C289.719 97.7679 290.417 97.5561 291.01 97.1595C291.604 96.7628 292.067 96.199 292.34 95.5393C292.613 94.8797 292.684 94.1539 292.545 93.4536C292.406 92.7533 292.062 92.1101 291.557 91.6052C291.052 91.1003 290.409 90.7565 289.709 90.6172C289.009 90.4779 288.283 90.5494 287.623 90.8226C286.963 91.0959 286.4 91.5586 286.003 92.1522C285.606 92.7459 285.395 93.4439 285.395 94.1579C285.395 94.6319 285.488 95.1014 285.669 95.5393C285.851 95.9773 286.117 96.3753 286.452 96.7105C286.787 97.0457 287.185 97.3116 287.623 97.4931C288.061 97.6745 288.53 97.7679 289.005 97.7679V97.7679Z" fill="#407BFF"/>
<path d="M212.394 66.8176C218.403 66.8176 223.274 61.9465 223.274 55.9376C223.274 49.9288 218.403 45.0576 212.394 45.0576C206.385 45.0576 201.514 49.9288 201.514 55.9376C201.514 61.9465 206.385 66.8176 212.394 66.8176Z" fill="white" stroke="white" stroke-width="0.5" stroke-miterlimit="10"/>
<path d="M215.994 55.1976H208.904C208.245 55.2081 207.617 55.4772 207.155 55.9467C206.692 56.4163 206.434 57.0488 206.434 57.7076V63.7076C208.167 65.0583 210.306 65.7843 212.504 65.768C214.702 65.7516 216.83 64.9939 218.544 63.6176V57.7076C218.544 57.3746 218.477 57.0449 218.349 56.7377C218.22 56.4306 218.032 56.1521 217.794 55.9185C217.557 55.6848 217.276 55.5008 216.966 55.377C216.657 55.2533 216.327 55.1923 215.994 55.1976V55.1976Z" fill="#407BFF"/>
<path d="M212.325 54.0979C214.319 54.0979 215.935 52.4817 215.935 50.4879C215.935 48.4942 214.319 46.8779 212.325 46.8779C210.331 46.8779 208.715 48.4942 208.715 50.4879C208.715 52.4817 210.331 54.0979 212.325 54.0979Z" fill="#407BFF"/>
<path d="M17.3124 132.846C23.2432 131.88 27.268 126.29 26.3021 120.359C25.3362 114.428 19.7454 110.403 13.8147 111.369C7.88397 112.335 3.85917 117.926 4.82505 123.857C5.79093 129.787 11.3817 133.812 17.3124 132.846Z" fill="white" stroke="white" stroke-width="0.5" stroke-miterlimit="10"/>
<path d="M19.1742 121.368H12.0742C11.7451 121.368 11.4192 121.433 11.1152 121.559C10.8112 121.685 10.5352 121.87 10.3029 122.103C10.0707 122.337 9.88671 122.613 9.76166 122.918C9.63662 123.222 9.57292 123.549 9.57424 123.878V129.828C11.3065 131.178 13.4438 131.903 15.6399 131.887C17.836 131.87 19.9622 131.113 21.6742 129.738V123.878C21.6756 123.549 21.6119 123.222 21.4868 122.918C21.3618 122.613 21.1778 122.337 20.9456 122.103C20.7133 121.87 20.4372 121.685 20.1333 121.559C19.8293 121.433 19.5034 121.368 19.1742 121.368V121.368Z" fill="#407BFF"/>
<path d="M15.5045 120.268C16.2185 120.268 16.9165 120.056 17.5101 119.659C18.1038 119.263 18.5665 118.699 18.8397 118.039C19.113 117.38 19.1845 116.654 19.0452 115.954C18.9059 115.253 18.5621 114.61 18.0572 114.105C17.5523 113.6 16.9091 113.257 16.2088 113.117C15.5085 112.978 14.7827 113.049 14.123 113.323C13.4634 113.596 12.8996 114.059 12.5029 114.652C12.1063 115.246 11.8945 115.944 11.8945 116.658C11.8945 117.615 12.2749 118.534 12.9519 119.211C13.6289 119.888 14.5471 120.268 15.5045 120.268Z" fill="#407BFF"/>
<path d="M24.3222 201.34C30.2529 200.375 34.2777 194.784 33.3119 188.853C32.346 182.922 26.7552 178.898 20.8245 179.863C14.8937 180.829 10.8689 186.42 11.8348 192.351C12.8007 198.282 18.3915 202.306 24.3222 201.34Z" fill="white" stroke="white" stroke-width="0.5" stroke-miterlimit="10"/>
<path d="M26.1742 189.868H19.0742C18.7451 189.868 18.4192 189.933 18.1152 190.059C17.8112 190.185 17.5352 190.37 17.3029 190.603C17.0707 190.837 16.8867 191.113 16.7617 191.418C16.6366 191.722 16.5729 192.049 16.5742 192.378V198.328C18.3065 199.678 20.4438 200.403 22.6399 200.387C24.836 200.37 26.9622 199.613 28.6742 198.238V192.378C28.6756 192.049 28.6119 191.722 28.4868 191.418C28.3618 191.113 28.1778 190.837 27.9456 190.603C27.7133 190.37 27.4372 190.185 27.1333 190.059C26.8293 189.933 26.5034 189.868 26.1742 189.868V189.868Z" fill="#407BFF"/>
<path d="M22.5045 188.768C23.2185 188.768 23.9165 188.556 24.5101 188.159C25.1038 187.763 25.5665 187.199 25.8397 186.539C26.113 185.88 26.1845 185.154 26.0452 184.454C25.9059 183.753 25.5621 183.11 25.0572 182.605C24.5523 182.1 23.9091 181.757 23.2088 181.617C22.5085 181.478 21.7827 181.549 21.123 181.823C20.4634 182.096 19.8996 182.559 19.5029 183.152C19.1063 183.746 18.8945 184.444 18.8945 185.158C18.8945 186.115 19.2749 187.034 19.9519 187.711C20.6289 188.388 21.5471 188.768 22.5045 188.768V188.768Z" fill="#407BFF"/>
<path d="M77.0573 139.583C79.2586 133.992 76.5105 127.675 70.9194 125.473C65.3283 123.272 59.0113 126.02 56.81 131.611C54.6087 137.202 57.3567 143.519 62.9479 145.721C68.539 147.922 74.856 145.174 77.0573 139.583Z" fill="white" stroke="white" stroke-width="0.5" stroke-miterlimit="10"/>
<path d="M70.5436 134.868H63.4336C62.7706 134.868 62.1347 135.131 61.6658 135.6C61.197 136.069 60.9336 136.705 60.9336 137.368V143.368C62.6659 144.718 64.8031 145.443 66.9992 145.427C69.1953 145.41 71.3216 144.653 73.0336 143.278V137.418C73.0402 137.086 72.9808 136.756 72.8588 136.448C72.7367 136.139 72.5545 135.858 72.3228 135.621C72.091 135.384 71.8144 135.195 71.5089 135.066C71.2035 134.936 70.8753 134.869 70.5436 134.868V134.868Z" fill="#407BFF"/>
<path d="M66.8737 133.768C67.5877 133.768 68.2856 133.556 68.8793 133.159C69.4729 132.763 69.9356 132.199 70.2089 131.539C70.4821 130.88 70.5536 130.154 70.4143 129.454C70.275 128.753 69.9312 128.11 69.4263 127.605C68.9215 127.1 68.2782 126.757 67.5779 126.617C66.8777 126.478 66.1518 126.549 65.4922 126.823C64.8325 127.096 64.2687 127.559 63.8721 128.152C63.4754 128.746 63.2637 129.444 63.2637 130.158C63.2637 130.632 63.357 131.101 63.5385 131.539C63.7199 131.977 63.9858 132.375 64.321 132.711C64.6562 133.046 65.0542 133.312 65.4922 133.493C65.9302 133.674 66.3996 133.768 66.8737 133.768Z" fill="#407BFF"/>
<path d="M138.704 253.228C144.713 253.228 149.584 248.357 149.584 242.348C149.584 236.339 144.713 231.468 138.704 231.468C132.695 231.468 127.824 236.339 127.824 242.348C127.824 248.357 132.695 253.228 138.704 253.228Z" fill="white" stroke="white" stroke-width="0.5" stroke-miterlimit="10"/>
<path d="M142.315 241.618H135.225C134.559 241.618 133.921 241.882 133.45 242.353C132.979 242.824 132.715 243.462 132.715 244.128V250.078C134.449 251.428 136.588 252.154 138.785 252.138C140.983 252.122 143.111 251.364 144.825 249.988V244.128C144.825 243.462 144.56 242.824 144.09 242.353C143.619 241.882 142.981 241.618 142.315 241.618Z" fill="#407BFF"/>
<path d="M138.643 240.518C140.637 240.518 142.253 238.902 142.253 236.908C142.253 234.914 140.637 233.298 138.643 233.298C136.649 233.298 135.033 234.914 135.033 236.908C135.033 238.902 136.649 240.518 138.643 240.518Z" fill="#407BFF"/>
<path d="M216.935 274.148C222.944 274.148 227.815 269.277 227.815 263.268C227.815 257.259 222.944 252.388 216.935 252.388C210.926 252.388 206.055 257.259 206.055 263.268C206.055 269.277 210.926 274.148 216.935 274.148Z" fill="white" stroke="white" stroke-width="0.5" stroke-miterlimit="10"/>
<path d="M220.534 262.538H213.434C212.77 262.538 212.133 262.801 211.663 263.269C211.192 263.738 210.926 264.374 210.924 265.038V271.038C212.658 272.388 214.797 273.114 216.994 273.098C219.192 273.082 221.32 272.324 223.034 270.948V265.018C223.029 264.358 222.763 263.727 222.295 263.263C221.826 262.798 221.193 262.538 220.534 262.538V262.538Z" fill="#407BFF"/>
<path d="M216.864 261.438C218.858 261.438 220.474 259.822 220.474 257.828C220.474 255.834 218.858 254.218 216.864 254.218C214.87 254.218 213.254 255.834 213.254 257.828C213.254 259.822 214.87 261.438 216.864 261.438Z" fill="#407BFF"/>
<path d="M282.152 204.349C284.225 198.709 281.333 192.457 275.693 190.384C270.053 188.311 263.801 191.203 261.728 196.843C259.655 202.483 262.547 208.735 268.187 210.808C273.827 212.881 280.079 209.989 282.152 204.349Z" fill="white" stroke="white" stroke-width="0.5" stroke-miterlimit="10"/>
<path d="M275.544 199.868H268.434C267.771 199.868 267.135 200.131 266.666 200.6C266.197 201.069 265.934 201.705 265.934 202.368V208.368C267.666 209.718 269.803 210.443 271.999 210.427C274.195 210.41 276.322 209.653 278.034 208.278V202.418C278.04 202.086 277.981 201.756 277.859 201.448C277.737 201.139 277.555 200.858 277.323 200.621C277.091 200.384 276.814 200.195 276.509 200.066C276.203 199.936 275.875 199.869 275.544 199.868V199.868Z" fill="#407BFF"/>
<path d="M271.874 198.768C272.588 198.768 273.286 198.556 273.879 198.159C274.473 197.763 274.936 197.199 275.209 196.539C275.482 195.88 275.554 195.154 275.414 194.454C275.275 193.753 274.931 193.11 274.426 192.605C273.921 192.1 273.278 191.757 272.578 191.617C271.878 191.478 271.152 191.549 270.492 191.823C269.833 192.096 269.269 192.559 268.872 193.152C268.475 193.746 268.264 194.444 268.264 195.158C268.264 196.115 268.644 197.034 269.321 197.711C269.998 198.388 270.916 198.768 271.874 198.768Z" fill="#407BFF"/>
<path d="M250.294 102.658C265.654 115.108 274.764 130.658 274.764 147.438C274.764 188.438 220.594 221.698 153.764 221.698C86.9337 221.698 32.7637 188.448 32.7637 147.438C32.7637 129.498 43.1337 113.048 60.3937 100.208" stroke="white" stroke-width="0.5" stroke-miterlimit="10"/>
<path d="M84.4336 71.768C95.3236 53.918 110.634 42.018 128.774 39.368C171.394 33.228 213.504 80.838 222.844 145.708C232.184 210.578 205.214 268.138 162.604 274.278C143.204 277.068 123.904 268.728 107.754 252.688" stroke="white" stroke-width="0.5" stroke-miterlimit="10"/>
<path d="M248.077 229.151C262.24 205.968 227.234 158.777 169.891 123.746C112.548 88.7165 54.5808 79.1128 40.4185 102.296C26.2562 125.48 61.2614 172.671 118.605 207.701C175.948 242.731 233.915 252.335 248.077 229.151Z" stroke="white" stroke-width="0.5" stroke-miterlimit="10"/>
<path d="M178.801 202.253C237.648 166.304 273.872 118.368 259.709 95.185C245.547 72.0016 186.361 82.3497 127.515 118.298C68.6677 154.247 32.4437 202.182 46.606 225.366C60.7683 248.549 119.954 238.201 178.801 202.253Z" stroke="white" stroke-width="0.5" stroke-miterlimit="10"/>
<path d="M204.504 86.0176C204.504 85.622 204.387 85.2353 204.167 84.9064C203.947 84.5775 203.635 84.3212 203.269 84.1698C202.904 84.0184 202.502 83.9788 202.114 84.056C201.726 84.1332 201.369 84.3237 201.09 84.6034C200.81 84.8831 200.62 85.2394 200.542 85.6274C200.465 86.0154 200.505 86.4175 200.656 86.7829C200.808 87.1484 201.064 87.4607 201.393 87.6805C201.722 87.9003 202.108 88.0176 202.504 88.0176C203.034 88.0176 203.543 87.8069 203.918 87.4318C204.293 87.0567 204.504 86.548 204.504 86.0176Z" fill="white" stroke="white" stroke-width="0.5" stroke-miterlimit="10"/>
<path d="M226.504 167.888C226.504 167.492 226.387 167.105 226.167 166.777C225.947 166.448 225.635 166.191 225.269 166.04C224.904 165.889 224.502 165.849 224.114 165.926C223.726 166.003 223.369 166.194 223.09 166.473C222.81 166.753 222.62 167.11 222.542 167.498C222.465 167.885 222.505 168.288 222.656 168.653C222.808 169.019 223.064 169.331 223.393 169.551C223.722 169.77 224.108 169.888 224.504 169.888C225.034 169.888 225.543 169.677 225.918 169.302C226.293 168.927 226.504 168.418 226.504 167.888Z" fill="white" stroke="white" stroke-width="0.5" stroke-miterlimit="10"/>
<path d="M222.104 209.478C222.104 209.082 221.986 208.695 221.766 208.366C221.547 208.038 221.234 207.781 220.869 207.63C220.503 207.478 220.101 207.439 219.713 207.516C219.325 207.593 218.969 207.784 218.689 208.063C218.41 208.343 218.219 208.699 218.142 209.087C218.065 209.475 218.104 209.877 218.256 210.243C218.407 210.608 218.663 210.921 218.992 211.14C219.321 211.36 219.708 211.478 220.104 211.478C220.634 211.478 221.143 211.267 221.518 210.892C221.893 210.517 222.104 210.008 222.104 209.478Z" fill="white" stroke="white" stroke-width="0.5" stroke-miterlimit="10"/>
<path d="M209.344 241.158C209.344 240.762 209.226 240.375 209.007 240.047C208.787 239.718 208.475 239.461 208.109 239.31C207.744 239.159 207.342 239.119 206.954 239.196C206.566 239.273 206.209 239.464 205.93 239.744C205.65 240.023 205.459 240.38 205.382 240.768C205.305 241.155 205.345 241.558 205.496 241.923C205.647 242.289 205.904 242.601 206.233 242.821C206.562 243.04 206.948 243.158 207.344 243.158C207.874 243.158 208.383 242.947 208.758 242.572C209.133 242.197 209.344 241.688 209.344 241.158Z" fill="white" stroke="white" stroke-width="0.5" stroke-miterlimit="10"/>
<path d="M247.434 196.018C247.434 195.622 247.316 195.235 247.097 194.906C246.877 194.578 246.564 194.321 246.199 194.17C245.834 194.018 245.431 193.979 245.043 194.056C244.655 194.133 244.299 194.324 244.019 194.603C243.74 194.883 243.549 195.239 243.472 195.627C243.395 196.015 243.434 196.417 243.586 196.783C243.737 197.148 243.994 197.461 244.322 197.681C244.651 197.9 245.038 198.018 245.434 198.018C245.964 198.018 246.473 197.807 246.848 197.432C247.223 197.057 247.434 196.548 247.434 196.018Z" fill="white" stroke="white" stroke-width="0.5" stroke-miterlimit="10"/>
<path d="M144.654 221.138C144.654 220.742 144.537 220.355 144.317 220.027C144.097 219.698 143.785 219.441 143.42 219.29C143.054 219.139 142.652 219.099 142.264 219.176C141.876 219.253 141.52 219.444 141.24 219.723C140.96 220.003 140.77 220.36 140.693 220.748C140.616 221.135 140.655 221.538 140.807 221.903C140.958 222.269 141.214 222.581 141.543 222.801C141.872 223.02 142.259 223.138 142.654 223.138C143.185 223.138 143.693 222.927 144.069 222.552C144.444 222.177 144.654 221.668 144.654 221.138Z" fill="white" stroke="white" stroke-width="0.5" stroke-miterlimit="10"/>
<path d="M53.5645 187.918C53.5645 187.522 53.4472 187.136 53.2274 186.807C53.0076 186.478 52.6953 186.222 52.3298 186.07C51.9644 185.919 51.5622 185.879 51.1743 185.956C50.7863 186.034 50.43 186.224 50.1502 186.504C49.8705 186.783 49.6801 187.14 49.6029 187.528C49.5257 187.916 49.5653 188.318 49.7167 188.683C49.8681 189.049 50.1244 189.361 50.4533 189.581C50.7822 189.801 51.1689 189.918 51.5645 189.918C52.0949 189.918 52.6036 189.707 52.9787 189.332C53.3537 188.957 53.5645 188.448 53.5645 187.918Z" fill="white" stroke="white" stroke-width="0.5" stroke-miterlimit="10"/>
<path d="M68.9648 167.228C68.9648 166.832 68.8475 166.445 68.6278 166.116C68.408 165.788 68.0957 165.531 67.7302 165.38C67.3648 165.228 66.9626 165.189 66.5747 165.266C66.1867 165.343 65.8303 165.534 65.5506 165.813C65.2709 166.093 65.0804 166.449 65.0033 166.837C64.9261 167.225 64.9657 167.627 65.1171 167.993C65.2685 168.358 65.5248 168.671 65.8537 168.89C66.1826 169.11 66.5693 169.228 66.9648 169.228C67.4953 169.228 68.004 169.017 68.3791 168.642C68.7541 168.267 68.9648 167.758 68.9648 167.228Z" fill="white" stroke="white" stroke-width="0.5" stroke-miterlimit="10"/>
<path d="M144.873 109.368C144.873 108.972 144.756 108.585 144.536 108.257C144.316 107.928 144.004 107.671 143.638 107.52C143.273 107.369 142.871 107.329 142.483 107.406C142.095 107.483 141.739 107.674 141.459 107.953C141.179 108.233 140.989 108.59 140.911 108.978C140.834 109.365 140.874 109.768 141.025 110.133C141.177 110.499 141.433 110.811 141.762 111.031C142.091 111.25 142.477 111.368 142.873 111.368C143.403 111.368 143.912 111.157 144.287 110.782C144.662 110.407 144.873 109.898 144.873 109.368Z" fill="white" stroke="white" stroke-width="0.5" stroke-miterlimit="10"/>
<path d="M263.684 114.428C263.684 114.032 263.566 113.645 263.347 113.317C263.127 112.988 262.814 112.731 262.449 112.58C262.084 112.429 261.681 112.389 261.293 112.466C260.905 112.543 260.549 112.734 260.269 113.014C259.99 113.293 259.799 113.65 259.722 114.038C259.645 114.426 259.684 114.828 259.836 115.193C259.987 115.559 260.244 115.871 260.572 116.091C260.901 116.31 261.288 116.428 261.684 116.428C262.214 116.428 262.723 116.217 263.098 115.842C263.473 115.467 263.684 114.958 263.684 114.428Z" fill="white" stroke="white" stroke-width="0.5" stroke-miterlimit="10"/>
<path d="M41.0234 124.108C41.0234 123.712 40.9061 123.326 40.6864 122.997C40.4666 122.668 40.1542 122.412 39.7888 122.26C39.4233 122.109 39.0212 122.069 38.6332 122.146C38.2453 122.224 37.8889 122.414 37.6092 122.694C37.3295 122.973 37.139 123.33 37.0619 123.718C36.9847 124.106 37.0243 124.508 37.1757 124.873C37.3271 125.239 37.5834 125.551 37.9123 125.771C38.2412 125.991 38.6279 126.108 39.0234 126.108C39.5539 126.108 40.0626 125.897 40.4376 125.522C40.8127 125.147 41.0234 124.638 41.0234 124.108Z" fill="white" stroke="white" stroke-width="0.5" stroke-miterlimit="10"/>
<path d="M263.664 113.638L279.384 105.178" stroke="white" stroke-width="0.5" stroke-miterlimit="10"/>
<path d="M37.0634 124.108L26.4434 122.108" stroke="white" stroke-width="0.5" stroke-miterlimit="10"/>
<path d="M66.9844 165.248V146.478" stroke="white" stroke-width="0.5" stroke-miterlimit="10"/>
<path d="M49.6034 187.918L33.4434 190.608" stroke="white" stroke-width="0.5" stroke-miterlimit="10"/>
<path d="M142.224 223.088L140.744 231.788" stroke="white" stroke-width="0.5" stroke-miterlimit="10"/>
<path d="M208.113 243.068L212.743 253.148" stroke="white" stroke-width="0.5" stroke-miterlimit="10"/>
<path d="M247.404 196.058L260.844 198.938" stroke="white" stroke-width="0.5" stroke-miterlimit="10"/>
<path d="M218.525 208.028L205.475 195.468" stroke="white" stroke-width="0.5" stroke-miterlimit="10"/>
<path d="M203.324 84.2379L209.274 66.5479" stroke="white" stroke-width="0.5" stroke-miterlimit="10"/>
<path d="M76.8145 74.9678L79.3344 76.8578" stroke="white" stroke-width="0.5" stroke-miterlimit="10"/>
<path d="M96.0332 252.328L98.8632 248.548" stroke="white" stroke-width="0.5" stroke-miterlimit="10"/>
<path d="M207.618 191.928C209.736 186.305 206.895 180.029 201.272 177.911C195.649 175.793 189.373 178.635 187.255 184.258C185.137 189.881 187.978 196.157 193.602 198.275C199.225 200.393 205.5 197.551 207.618 191.928Z" fill="white" stroke="white" stroke-width="0.5" stroke-miterlimit="10"/>
<path d="M201.043 187.368H193.943C193.28 187.368 192.644 187.631 192.176 188.1C191.707 188.569 191.443 189.205 191.443 189.868V195.868C193.176 197.218 195.313 197.943 197.509 197.927C199.705 197.91 201.831 197.153 203.543 195.778V189.918C203.55 189.585 203.49 189.255 203.368 188.946C203.245 188.636 203.062 188.355 202.829 188.117C202.596 187.88 202.318 187.691 202.012 187.563C201.705 187.434 201.376 187.368 201.043 187.368V187.368Z" fill="#407BFF"/>
<path d="M197.374 186.268C198.088 186.268 198.786 186.056 199.379 185.659C199.973 185.263 200.436 184.699 200.709 184.039C200.982 183.38 201.054 182.654 200.914 181.954C200.775 181.253 200.431 180.61 199.926 180.105C199.421 179.6 198.778 179.257 198.078 179.117C197.378 178.978 196.652 179.049 195.992 179.323C195.333 179.596 194.769 180.059 194.372 180.652C193.975 181.246 193.764 181.944 193.764 182.658C193.764 183.615 194.144 184.534 194.821 185.211C195.498 185.888 196.416 186.268 197.374 186.268V186.268Z" fill="#407BFF"/>
<path d="M232.137 140.417C234.24 134.789 231.383 128.521 225.754 126.417C220.125 124.314 213.857 127.172 211.754 132.801C209.65 138.429 212.508 144.697 218.137 146.801C223.766 148.904 230.034 146.046 232.137 140.417Z" fill="white" stroke="white" stroke-width="0.5" stroke-miterlimit="10"/>
<path d="M225.544 135.868H218.434C217.771 135.868 217.135 136.131 216.666 136.6C216.197 137.069 215.934 137.705 215.934 138.368V144.368C217.666 145.718 219.803 146.443 221.999 146.427C224.195 146.41 226.322 145.653 228.034 144.278V138.418C228.04 138.086 227.981 137.756 227.859 137.448C227.737 137.139 227.555 136.858 227.323 136.621C227.091 136.384 226.814 136.195 226.509 136.066C226.203 135.936 225.875 135.869 225.544 135.868V135.868Z" fill="#407BFF"/>
<path d="M221.874 134.768C222.588 134.768 223.286 134.556 223.879 134.159C224.473 133.763 224.936 133.199 225.209 132.539C225.482 131.88 225.554 131.154 225.414 130.454C225.275 129.753 224.931 129.11 224.426 128.605C223.921 128.1 223.278 127.757 222.578 127.617C221.878 127.478 221.152 127.549 220.492 127.823C219.833 128.096 219.269 128.559 218.872 129.152C218.475 129.746 218.264 130.444 218.264 131.158C218.264 132.115 218.644 133.034 219.321 133.711C219.998 134.388 220.916 134.768 221.874 134.768Z" fill="#407BFF"/>
</svg>
